<?xml version="1.0" encoding="utf-8"?>
<!-- Generator: Adobe Illustrator 24.0.0, SVG Export Plug-In . SVG Version: 6.00 Build 0)  -->
<svg version="1.1" id="Layer_1" xmlns="http://www.w3.org/2000/svg" xmlns:xlink="http://www.w3.org/1999/xlink" x="0px" y="0px"
	 viewBox="0 0 256 256" enable-background="new 0 0 256 256" xml:space="preserve">
<g>
	<g>
		<g>
			<circle fill="#382B73" cx="128" cy="128" r="119.4"/>
		</g>
	</g>
	<g>
		<g>
			<path fill="#291B4A" d="M74.344,215.056h119.957c1.381,0,2.5-1.119,2.5-2.5V64.09c0-1.381-1.119-2.5-2.5-2.5s-2.5,1.119-2.5,2.5
				v145.966H74.344c-1.381,0-2.5,1.119-2.5,2.5S72.963,215.056,74.344,215.056z"/>
		</g>
		<g>
			<path fill="#291B4A" d="M59.199,199.91c0,1.381,1.119,2.5,2.5,2.5h119.957c1.381,0,2.5-1.119,2.5-2.5V51.444
				c0-1.381-1.119-2.5-2.5-2.5H61.699c-1.381,0-2.5,1.119-2.5,2.5V199.91z M64.199,53.944h114.957v10.628H64.199V53.944z
				 M64.199,69.572h114.957V197.41H64.199V69.572z"/>
		</g>
		<g>
			<path fill="#291B4A" d="M122.766,165.84h16.015c1.381,0,2.5-1.119,2.5-2.5s-1.119-2.5-2.5-2.5h-16.015
				c-1.381,0-2.5,1.119-2.5,2.5S121.385,165.84,122.766,165.84z"/>
		</g>
		<g>
			<path fill="#291B4A" d="M84.375,160.84c-1.381,0-2.5,1.119-2.5,2.5s1.119,2.5,2.5,2.5h28.987c1.381,0,2.5-1.119,2.5-2.5
				s-1.119-2.5-2.5-2.5H84.375z"/>
		</g>
		<g>
			<path fill="#291B4A" d="M111.515,147.036h28.868c1.381,0,2.5-1.119,2.5-2.5s-1.119-2.5-2.5-2.5h-28.868
				c-1.381,0-2.5,1.119-2.5,2.5S110.134,147.036,111.515,147.036z"/>
		</g>
		<g>
			<path fill="#291B4A" d="M84.375,142.036c-1.381,0-2.5,1.119-2.5,2.5s1.119,2.5,2.5,2.5h17.736c1.381,0,2.5-1.119,2.5-2.5
				s-1.119-2.5-2.5-2.5H84.375z"/>
		</g>
		<g>
			<path fill="#291B4A" d="M124.758,128.232h28.044c1.381,0,2.5-1.119,2.5-2.5s-1.119-2.5-2.5-2.5h-28.044
				c-1.381,0-2.5,1.119-2.5,2.5S123.377,128.232,124.758,128.232z"/>
		</g>
		<g>
			<path fill="#291B4A" d="M84.375,123.232c-1.381,0-2.5,1.119-2.5,2.5s1.119,2.5,2.5,2.5h30.979c1.381,0,2.5-1.119,2.5-2.5
				s-1.119-2.5-2.5-2.5H84.375z"/>
		</g>
		<g>
			<path fill="#291B4A" d="M84.375,104.428c-1.381,0-2.5,1.119-2.5,2.5s1.119,2.5,2.5,2.5h40.153c1.381,0,2.5-1.119,2.5-2.5
				s-1.119-2.5-2.5-2.5H84.375z"/>
		</g>
		<g>
			<path fill="#291B4A" d="M84.375,81.488c-1.381,0-2.5,1.119-2.5,2.5s1.119,2.5,2.5,2.5h35.473c1.381,0,2.5-1.119,2.5-2.5
				s-1.119-2.5-2.5-2.5H84.375z"/>
		</g>
		<g>
			<path fill="#291B4A" d="M81.875,182.034c0,1.381,1.119,2.5,2.5,2.5h44.125c1.381,0,2.5-1.119,2.5-2.5s-1.119-2.5-2.5-2.5H84.375
				C82.994,179.534,81.875,180.653,81.875,182.034z"/>
		</g>
	</g>
	<g>
		<g>
			<path fill="#D3D3D3" d="M61.699,65.572h119.957c1.381,0,2.5-1.119,2.5-2.5s-1.119-2.5-2.5-2.5H61.699c-1.381,0-2.5,1.119-2.5,2.5
				S60.318,65.572,61.699,65.572z"/>
		</g>
		<g>
			<g>
				<path fill="#EBE7F2" d="M61.699,65.572h119.957c1.381,0,2.5-1.119,2.5-2.5s-1.119-2.5-2.5-2.5H61.699
					c-1.381,0-2.5,1.119-2.5,2.5S60.318,65.572,61.699,65.572z M61.699,62.072h119.957c0.551,0,1,0.448,1,1s-0.449,1-1,1H61.699
					c-0.551,0-1-0.448-1-1S61.147,62.072,61.699,62.072z"/>
			</g>
		</g>
		<g>
			<path fill="#ED9ABC" d="M74.344,211.056h119.957c1.381,0,2.5-1.119,2.5-2.5V60.09c0-1.381-1.119-2.5-2.5-2.5s-2.5,1.119-2.5,2.5
				v145.966H74.344c-1.381,0-2.5,1.119-2.5,2.5S72.963,211.056,74.344,211.056z"/>
		</g>
		<g>
			<path fill="#F9B087" d="M59.199,195.91c0,1.381,1.119,2.5,2.5,2.5h119.957c1.381,0,2.5-1.119,2.5-2.5V47.444
				c0-1.381-1.119-2.5-2.5-2.5H61.699c-1.381,0-2.5,1.119-2.5,2.5V195.91z M64.199,49.944h114.957V193.41H64.199V49.944z"/>
		</g>
		<g>
			<path fill="#F9B087" d="M122.766,161.84h16.015c1.381,0,2.5-1.119,2.5-2.5s-1.119-2.5-2.5-2.5h-16.015
				c-1.381,0-2.5,1.119-2.5,2.5S121.385,161.84,122.766,161.84z"/>
		</g>
		<g>
			<path fill="#F9B087" d="M84.375,156.84c-1.381,0-2.5,1.119-2.5,2.5s1.119,2.5,2.5,2.5h28.987c1.381,0,2.5-1.119,2.5-2.5
				s-1.119-2.5-2.5-2.5H84.375z"/>
		</g>
		<g>
			<path fill="#F9B087" d="M111.515,143.036h28.868c1.381,0,2.5-1.119,2.5-2.5s-1.119-2.5-2.5-2.5h-28.868
				c-1.381,0-2.5,1.119-2.5,2.5S110.134,143.036,111.515,143.036z"/>
		</g>
		<g>
			<path fill="#F9B087" d="M84.375,138.036c-1.381,0-2.5,1.119-2.5,2.5s1.119,2.5,2.5,2.5h17.736c1.381,0,2.5-1.119,2.5-2.5
				s-1.119-2.5-2.5-2.5H84.375z"/>
		</g>
		<g>
			<path fill="#F9B087" d="M124.758,124.232h28.044c1.381,0,2.5-1.119,2.5-2.5s-1.119-2.5-2.5-2.5h-28.044
				c-1.381,0-2.5,1.119-2.5,2.5S123.377,124.232,124.758,124.232z"/>
		</g>
		<g>
			<path fill="#F9B087" d="M84.375,119.232c-1.381,0-2.5,1.119-2.5,2.5s1.119,2.5,2.5,2.5h30.979c1.381,0,2.5-1.119,2.5-2.5
				s-1.119-2.5-2.5-2.5H84.375z"/>
		</g>
		<g>
			<path fill="#F9B087" d="M84.375,100.428c-1.381,0-2.5,1.119-2.5,2.5s1.119,2.5,2.5,2.5h40.153c1.381,0,2.5-1.119,2.5-2.5
				s-1.119-2.5-2.5-2.5H84.375z"/>
		</g>
		<g>
			<g>
				<path fill="#FF8639" d="M64.199,194.16h114.957c0.414,0,0.75-0.336,0.75-0.75V49.944c0-0.414-0.336-0.75-0.75-0.75H64.199
					c-0.414,0-0.75,0.336-0.75,0.75V193.41C63.449,193.824,63.785,194.16,64.199,194.16z M64.949,50.694h113.457V192.66H64.949
					V50.694z"/>
				<path fill="#FF8639" d="M58.449,195.91c0,1.792,1.458,3.25,3.25,3.25h119.957c1.792,0,3.25-1.458,3.25-3.25V47.444
					c0-1.792-1.458-3.25-3.25-3.25H61.699c-1.792,0-3.25,1.458-3.25,3.25V195.91z M59.949,47.444c0-0.965,0.785-1.75,1.75-1.75
					h119.957c0.965,0,1.75,0.785,1.75,1.75V195.91c0,0.965-0.785,1.75-1.75,1.75H61.699c-0.965,0-1.75-0.785-1.75-1.75V47.444z"/>
			</g>
		</g>
		<g>
			<g>
				<path fill="#FF8639" d="M122.766,162.59h16.015c1.792,0,3.25-1.458,3.25-3.25s-1.458-3.25-3.25-3.25h-16.015
					c-1.792,0-3.25,1.458-3.25,3.25S120.974,162.59,122.766,162.59z M122.766,157.59h16.015c0.965,0,1.75,0.785,1.75,1.75
					s-0.785,1.75-1.75,1.75h-16.015c-0.965,0-1.75-0.785-1.75-1.75S121.801,157.59,122.766,157.59z"/>
			</g>
		</g>
		<g>
			<g>
				<path fill="#FF8639" d="M84.375,156.09c-1.792,0-3.25,1.458-3.25,3.25s1.458,3.25,3.25,3.25h28.987
					c1.792,0,3.25-1.458,3.25-3.25s-1.458-3.25-3.25-3.25H84.375z M115.111,159.34c0,0.965-0.785,1.75-1.75,1.75H84.375
					c-0.965,0-1.75-0.785-1.75-1.75s0.785-1.75,1.75-1.75h28.987C114.326,157.59,115.111,158.375,115.111,159.34z"/>
			</g>
		</g>
		<g>
			<g>
				<path fill="#FF8639" d="M111.515,143.786h28.868c1.792,0,3.25-1.458,3.25-3.25s-1.458-3.25-3.25-3.25h-28.868
					c-1.792,0-3.25,1.458-3.25,3.25S109.723,143.786,111.515,143.786z M111.515,138.786h28.868c0.965,0,1.75,0.785,1.75,1.75
					s-0.785,1.75-1.75,1.75h-28.868c-0.965,0-1.75-0.785-1.75-1.75S110.55,138.786,111.515,138.786z"/>
			</g>
		</g>
		<g>
			<g>
				<path fill="#FF8639" d="M84.375,137.286c-1.792,0-3.25,1.458-3.25,3.25s1.458,3.25,3.25,3.25h17.736
					c1.792,0,3.25-1.458,3.25-3.25s-1.458-3.25-3.25-3.25H84.375z M103.861,140.536c0,0.965-0.785,1.75-1.75,1.75H84.375
					c-0.965,0-1.75-0.785-1.75-1.75s0.785-1.75,1.75-1.75h17.736C103.076,138.786,103.861,139.571,103.861,140.536z"/>
			</g>
		</g>
		<g>
			<g>
				<path fill="#FF8639" d="M124.758,124.982h28.044c1.792,0,3.25-1.458,3.25-3.25s-1.458-3.25-3.25-3.25h-28.044
					c-1.792,0-3.25,1.458-3.25,3.25S122.966,124.982,124.758,124.982z M124.758,119.982h28.044c0.965,0,1.75,0.785,1.75,1.75
					s-0.785,1.75-1.75,1.75h-28.044c-0.965,0-1.75-0.785-1.75-1.75S123.793,119.982,124.758,119.982z"/>
			</g>
		</g>
		<g>
			<g>
				<path fill="#FF8639" d="M84.375,118.482c-1.792,0-3.25,1.458-3.25,3.25s1.458,3.25,3.25,3.25h30.979
					c1.792,0,3.25-1.458,3.25-3.25s-1.458-3.25-3.25-3.25H84.375z M117.104,121.732c0,0.965-0.785,1.75-1.75,1.75H84.375
					c-0.965,0-1.75-0.785-1.75-1.75s0.785-1.75,1.75-1.75h30.979C116.319,119.982,117.104,120.767,117.104,121.732z"/>
			</g>
		</g>
		<g>
			<g>
				<path fill="#FF8639" d="M84.375,99.678c-1.792,0-3.25,1.458-3.25,3.25s1.458,3.25,3.25,3.25h40.153
					c1.792,0,3.25-1.458,3.25-3.25s-1.458-3.25-3.25-3.25H84.375z M126.278,102.928c0,0.965-0.785,1.75-1.75,1.75H84.375
					c-0.965,0-1.75-0.785-1.75-1.75s0.785-1.75,1.75-1.75h40.153C125.493,101.178,126.278,101.963,126.278,102.928z"/>
			</g>
		</g>
		<g>
			<path fill="#ED9ABC" d="M84.375,77.488c-1.381,0-2.5,1.119-2.5,2.5s1.119,2.5,2.5,2.5h35.473c1.381,0,2.5-1.119,2.5-2.5
				s-1.119-2.5-2.5-2.5H84.375z"/>
		</g>
		<g>
			<g>
				<path fill="#E54890" d="M74.344,211.056h119.957c1.381,0,2.5-1.119,2.5-2.5V60.09c0-1.381-1.119-2.5-2.5-2.5s-2.5,1.119-2.5,2.5
					v145.966H74.344c-1.381,0-2.5,1.119-2.5,2.5S72.963,211.056,74.344,211.056z M74.344,207.556h117.457c0.828,0,1.5-0.672,1.5-1.5
					V60.09c0-0.552,0.449-1,1-1s1,0.448,1,1v148.466c0,0.552-0.449,1-1,1H74.344c-0.551,0-1-0.448-1-1
					S73.793,207.556,74.344,207.556z"/>
			</g>
		</g>
		<g>
			<g>
				<path fill="#E54890" d="M84.375,77.488c-1.381,0-2.5,1.119-2.5,2.5s1.119,2.5,2.5,2.5h35.473c1.381,0,2.5-1.119,2.5-2.5
					s-1.119-2.5-2.5-2.5H84.375z M120.847,79.988c0,0.552-0.449,1-1,1H84.375c-0.551,0-1-0.448-1-1s0.449-1,1-1h35.473
					C120.399,78.988,120.847,79.436,120.847,79.988z"/>
			</g>
		</g>
		<g>
			<path fill="#D3D3D3" d="M81.875,178.034c0,1.381,1.119,2.5,2.5,2.5h44.125c1.381,0,2.5-1.119,2.5-2.5s-1.119-2.5-2.5-2.5H84.375
				C82.994,175.534,81.875,176.653,81.875,178.034z"/>
		</g>
		<g>
			<g>
				<path fill="#EBE7F2" d="M81.875,178.034c0,1.381,1.119,2.5,2.5,2.5h44.125c1.381,0,2.5-1.119,2.5-2.5s-1.119-2.5-2.5-2.5H84.375
					C82.994,175.534,81.875,176.653,81.875,178.034z M84.375,177.034h44.125c0.551,0,1,0.448,1,1s-0.449,1-1,1H84.375
					c-0.551,0-1-0.448-1-1S83.823,177.034,84.375,177.034z"/>
			</g>
		</g>
	</g>
</g>
</svg>
