<svg width="28" height="24" viewBox="0 0 28 24" fill="none" xmlns="http://www.w3.org/2000/svg">
<path d="M14.6518 6.88004C14.6298 6.45064 14.209 6.52369 13.7983 6.52369C14.1017 6.60793 14.3886 6.72514 14.6518 6.88004Z" fill="#7C86FF"/>
<path d="M10.2626 5.8045C8.66855 5.8045 7.93484 7.90852 9.20912 8.96673C9.64352 7.75714 10.5083 6.88862 11.642 6.54581C11.3318 6.09873 10.8308 5.8045 10.2626 5.8045Z" fill="#7C86FF"/>
<path d="M6.96922 8.63704C7.03418 8.85442 7.11835 9.06296 7.21833 9.26054L6.69471 9.80688C6.55409 9.95352 6.55409 10.1915 6.69471 10.3385L7.61767 11.3012C7.68489 11.3713 7.77698 11.4108 7.87297 11.4108C7.96791 11.4108 8.05938 11.3713 8.12776 11.3012L8.65081 10.7549C8.7293 10.7982 8.8163 10.8248 8.89759 10.8621C8.89759 10.8559 8.89701 10.8495 8.89701 10.8432C8.89701 10.3968 8.94619 9.97559 9.03374 9.5801C8.40223 9.15627 7.98085 8.42058 7.98085 7.58062C7.98085 6.26854 9.00435 5.20093 10.2623 5.20093C11.114 5.20093 11.8495 5.69542 12.242 6.41787C12.6612 6.36367 13.0549 6.36367 13.5288 6.45705C13.4678 6.26475 13.3961 6.07654 13.3062 5.90013L13.8299 5.35352C13.8982 5.28312 13.936 5.18739 13.936 5.08786C13.936 4.98829 13.8982 4.89259 13.8299 4.8222L12.9074 3.86002C12.8368 3.7864 12.7447 3.74988 12.6527 3.74988C12.5606 3.74988 12.4685 3.7864 12.3985 3.86002L11.8732 4.40663C11.6834 4.3018 11.484 4.21403 11.2751 4.14776V3.37551C11.2751 3.16818 11.1146 3 10.9152 3H9.60988C9.41161 3 9.24946 3.16818 9.24946 3.37551V4.14772C9.04105 4.21399 8.84162 4.30176 8.65128 4.4066L8.12776 3.86059C8.05713 3.78697 7.96507 3.75045 7.87297 3.75045C7.78091 3.75045 7.68831 3.78697 7.61825 3.86029L6.69471 4.82246C6.6275 4.89316 6.58967 4.98856 6.58967 5.08843C6.58967 5.18826 6.6275 5.28369 6.69471 5.35409L7.21833 5.90039C7.11831 6.09831 7.03418 6.30655 6.97038 6.52389H6.23041C6.03102 6.52389 5.87 6.69233 5.87 6.89996V8.26123C5.87 8.46826 6.03102 8.63704 6.23041 8.63704H6.96922Z" fill="#7C86FF"/>
<path d="M18.2768 15.9211C18.8541 15.5909 19.2506 14.9589 19.2506 14.2255C19.2506 13.1553 18.4153 12.2847 17.3889 12.2847C17.028 12.2847 16.6936 12.3972 16.4078 12.5834C16.2366 13.2937 15.9672 13.9732 15.6147 14.5634C16.6139 14.7592 17.5307 15.2337 18.2768 15.9211Z" fill="#7C86FF"/>
<path d="M22.1295 13.4909C22.1295 13.2668 21.955 13.0854 21.7409 13.0854H20.9423C20.8733 12.8506 20.7818 12.6256 20.6734 12.4121L21.2387 11.8225C21.3122 11.7465 21.3528 11.6435 21.3528 11.536C21.3528 11.4284 21.3122 11.3253 21.2387 11.2491L20.2435 10.2109C20.1678 10.1316 20.0678 10.0919 19.9684 10.0919C19.869 10.0919 19.7696 10.1316 19.6939 10.2109L19.1274 10.8008C18.9229 10.6877 18.7077 10.5929 18.4817 10.5213V9.68842C18.4817 9.4646 18.3083 9.28314 18.0937 9.28314H16.6855C16.5912 9.28314 16.5082 9.32259 16.4404 9.38093C16.559 9.8321 16.624 10.3213 16.624 10.8432C16.624 11.1745 16.5992 11.5109 16.5528 11.8454C16.8149 11.7447 17.0939 11.6814 17.3894 11.6814C18.7348 11.6814 19.8295 12.8227 19.8295 14.2254C19.8295 15.1219 19.3804 15.9077 18.7066 16.361C19.1969 16.9217 19.5866 17.587 19.8402 18.3324C19.882 18.3474 19.9255 18.3584 19.969 18.3584C20.0684 18.3584 20.1678 18.3189 20.2441 18.2396L21.2399 17.2014C21.3128 17.1254 21.3529 17.0224 21.3529 16.9149C21.3529 16.8074 21.3128 16.7043 21.2399 16.628L20.6734 16.0381C20.7819 15.8249 20.8733 15.5999 20.9423 15.3649H21.7409C21.8437 15.3649 21.9437 15.3225 22.016 15.2459C22.0889 15.1701 22.1302 15.0668 22.1302 14.9593L22.1295 13.4909Z" fill="#7C86FF"/>
<path d="M19.0465 18.6991C18.4426 16.8463 16.847 15.572 15.005 15.3985C14.3882 16.0796 13.6245 16.5118 12.7597 16.5118C11.8955 16.5118 11.1312 16.0797 10.515 15.3985C8.6719 15.572 7.07619 16.8463 6.47233 18.6994L6.13853 19.724C6.04305 20.0188 6.08877 20.3437 6.26278 20.5967C6.43675 20.8497 6.71693 20.9999 7.01515 20.9999H18.5036C18.8024 20.9999 19.0826 20.8497 19.2566 20.5967C19.43 20.3437 19.4763 20.0188 19.3803 19.724L19.0465 18.6991Z" fill="#7C86FF"/>
<path d="M9.76453 10.8432C9.76453 13.1414 11.1061 15.6073 12.7599 15.6073C14.4144 15.6073 15.7559 13.1414 15.7559 10.8432C15.7559 6.07944 9.76453 6.07 9.76453 10.8432Z" fill="#7C86FF"/>
</svg>
