<svg width="36" height="36" viewBox="0 0 36 36" fill="none" xmlns="http://www.w3.org/2000/svg">
<rect y="0.00012207" width="36" height="36" rx="12" fill="#F5F8FE"/>
<path d="M20.5625 10.1251H19.3407C19.109 9.47037 18.4835 9.00012 17.75 9.00012C17.0165 9.00012 16.391 9.47037 16.1581 10.1251H14.9375C14.627 10.1251 14.375 10.3771 14.375 10.6876V12.9376C14.375 13.2481 14.627 13.5001 14.9375 13.5001H20.5625C20.873 13.5001 21.125 13.2481 21.125 12.9376V10.6876C21.125 10.3771 20.873 10.1251 20.5625 10.1251Z" fill="#307DF0"/>
<path d="M23.375 11.2501H22.25V12.9376C22.25 13.868 21.4929 14.6251 20.5625 14.6251H14.9375C14.0071 14.6251 13.25 13.868 13.25 12.9376V11.2501H12.125C11.5051 11.2501 11 11.7552 11 12.3751V25.8751C11 26.5062 11.4939 27.0001 12.125 27.0001H23.375C24.0061 27.0001 24.5 26.5062 24.5 25.8751V12.3751C24.5 11.744 24.0061 11.2501 23.375 11.2501ZM17.5858 21.2109L15.3358 23.4609C15.2255 23.57 15.0815 23.6251 14.9375 23.6251C14.7935 23.6251 14.6495 23.57 14.5392 23.4609L13.4142 22.3359C13.1949 22.1165 13.1949 21.7599 13.4142 21.5405C13.6336 21.3211 13.9903 21.3211 14.2096 21.5405L14.9375 22.2672L16.7892 20.4155C17.0086 20.1961 17.3653 20.1961 17.5846 20.4155C17.804 20.6349 17.8051 20.9904 17.5858 21.2109ZM17.5858 16.7109L15.3358 18.9609C15.2255 19.07 15.0815 19.1251 14.9375 19.1251C14.7935 19.1251 14.6495 19.07 14.5392 18.9609L13.4142 17.8359C13.1949 17.6165 13.1949 17.2599 13.4142 17.0405C13.6336 16.8211 13.9903 16.8211 14.2096 17.0405L14.9375 17.7672L16.7892 15.9155C17.0086 15.6961 17.3653 15.6961 17.5846 15.9155C17.804 16.1349 17.8051 16.4904 17.5858 16.7109ZM21.6875 22.5001H19.4375C19.127 22.5001 18.875 22.2481 18.875 21.9376C18.875 21.6271 19.127 21.3751 19.4375 21.3751H21.6875C21.998 21.3751 22.25 21.6271 22.25 21.9376C22.25 22.2481 21.998 22.5001 21.6875 22.5001ZM21.6875 18.0001H19.4375C19.127 18.0001 18.875 17.7481 18.875 17.4376C18.875 17.1271 19.127 16.8751 19.4375 16.8751H21.6875C21.998 16.8751 22.25 17.1271 22.25 17.4376C22.25 17.7481 21.998 18.0001 21.6875 18.0001Z" fill="#307DF0"/>
</svg>
