<svg width="28" height="25" viewBox="0 0 28 25" fill="none" xmlns="http://www.w3.org/2000/svg">
<path d="M6.74023 17.9386L4.71552 19.9491C4.21747 20.4437 4.64764 21.2822 5.34331 21.173L11.101 20.2686C11.2527 20.2448 11.3929 20.1739 11.5015 20.066L13.3139 18.2662H8.08828C7.6072 18.2663 7.14708 18.1498 6.74023 17.9386Z" fill="#7C86FF"/>
<path d="M15.395 9.46498L18.1387 12.1895L19.487 13.5284L19.5184 13.5596L22.2843 10.8131C23.8016 9.3065 23.8016 6.85509 22.2843 5.34846C21.5257 4.59518 20.5292 4.21857 19.5328 4.21857C18.5363 4.21857 17.5399 4.59524 16.7813 5.34846L14.0154 8.09499L14.0467 8.12611L15.395 9.46498ZM19.5618 7.16227C20.0587 7.16227 20.4615 7.5623 20.4615 8.05574C20.4615 8.54917 20.0587 8.9492 19.5618 8.9492C19.0649 8.9492 18.662 8.54917 18.662 8.05574C18.662 7.5623 19.0649 7.16227 19.5618 7.16227Z" fill="#7C86FF"/>
<path d="M12.3099 14.4351L11.3498 13.4817L10.0015 12.1429L9.9701 12.1117L7.3825 14.6812C7.09711 14.9646 7.01175 15.3907 7.1662 15.7609C7.32065 16.1311 7.68441 16.3726 8.08801 16.3726H14.261L14.2167 16.3286L12.3099 14.4351Z" fill="#7C86FF"/>
<path d="M23.2206 19.9138L6.94019 3.74724C6.75403 3.56237 6.51002 3.46997 6.26601 3.46997C6.022 3.46997 5.778 3.56237 5.59183 3.74724C5.21949 4.11697 5.21949 4.71644 5.59183 5.08611L21.8723 21.2527C22.0585 21.4376 22.3025 21.53 22.5465 21.53C22.7905 21.53 23.0345 21.4375 23.2207 21.2527C23.593 20.883 23.593 20.2836 23.2206 19.9138Z" fill="#7C86FF"/>
</svg>
