<svg width="20" height="22" viewBox="0 0 20 22" fill="none" xmlns="http://www.w3.org/2000/svg">
<path d="M18.7715 13.9401C18.6775 13.889 18.5794 13.8455 18.478 13.8099V8.23476C18.5802 8.2078 18.6787 8.16924 18.7715 8.11989C19.1822 7.89076 19.482 7.51389 19.6054 7.07181C19.7289 6.62973 19.6658 6.15845 19.43 5.76117C19.1898 5.36762 18.7989 5.08111 18.3416 4.9636C17.8844 4.84609 17.3976 4.90701 16.9865 5.1332C16.8929 5.18569 16.8052 5.24728 16.7247 5.317L11.7344 2.53708C11.7426 2.43256 11.7426 2.3276 11.7344 2.22309C11.7344 1.7661 11.5464 1.32782 11.2116 1.00468C10.8768 0.681539 10.4228 0.5 9.94937 0.5C9.47594 0.5 9.02191 0.681539 8.68714 1.00468C8.35238 1.32782 8.16431 1.7661 8.16431 2.22309C8.1561 2.3276 8.1561 2.43256 8.16431 2.53708L3.23755 5.317C3.157 5.24728 3.06927 5.18569 2.97574 5.1332C2.56465 4.90701 2.07785 4.84609 1.62059 4.9636C1.16333 5.08111 0.772358 5.36762 0.532196 5.76117C0.296427 6.15845 0.233345 6.62973 0.356762 7.07181C0.480178 7.51389 0.780037 7.89076 1.19068 8.11989C1.28349 8.16924 1.38202 8.2078 1.48423 8.23476V13.8099C1.38285 13.8455 1.28467 13.889 1.19068 13.9401C0.780037 14.1692 0.480178 14.5461 0.356762 14.9882C0.233345 15.4303 0.296427 15.9015 0.532196 16.2988C0.652193 16.4893 0.809983 16.655 0.996506 16.7864C1.18303 16.9178 1.39461 17.0124 1.6191 17.0646C1.75659 17.115 1.90088 17.1459 2.04751 17.1565C2.36195 17.1565 2.67094 17.0773 2.94401 16.9268C3.03754 16.8743 3.12527 16.8127 3.20582 16.743L8.19604 19.5229C8.18783 19.6274 8.18783 19.7324 8.19604 19.8369C8.19604 20.2939 8.38411 20.7322 8.71888 21.0553C9.05364 21.3785 9.50768 21.56 9.9811 21.56C10.4545 21.56 10.9086 21.3785 11.2433 21.0553C11.5781 20.7322 11.7662 20.2939 11.7662 19.8369C11.7744 19.7324 11.7744 19.6274 11.7662 19.5229L16.7564 16.743C16.8369 16.8127 16.9247 16.8743 17.0182 16.9268C17.2913 17.0773 17.6003 17.1565 17.9147 17.1565C18.0704 17.1588 18.2256 17.1382 18.3748 17.0953C18.5993 17.043 18.8109 16.9485 18.9974 16.817C19.184 16.6856 19.3417 16.5199 19.4617 16.3295C19.5822 16.1296 19.66 15.9085 19.6904 15.6791C19.7209 15.4498 19.7034 15.2169 19.6391 14.9942C19.5748 14.7714 19.4648 14.5634 19.3158 14.3824C19.1668 14.2013 18.9817 14.051 18.7715 13.9401ZM17.2879 13.8176C16.8848 13.9477 16.5451 14.216 16.3331 14.5717C16.1211 14.9273 16.0516 15.3456 16.1376 15.7474L11.1315 18.535C10.8139 18.2642 10.4048 18.1148 9.9811 18.1148C9.55739 18.1148 9.14827 18.2642 8.83073 18.535L3.82464 15.7474C3.91064 15.3456 3.84106 14.9273 3.62907 14.5717C3.41708 14.216 3.07738 13.9477 2.67427 13.8176V8.23476C3.07797 8.1005 3.41668 7.82804 3.6263 7.46895C3.83736 7.1117 3.90779 6.69293 3.82464 6.28959L8.83073 3.52498C9.14827 3.79579 9.55739 3.94525 9.9811 3.94525C10.4048 3.94525 10.8139 3.79579 11.1315 3.52498L16.1376 6.31256C16.052 6.71499 16.1196 7.1337 16.328 7.49192C16.5376 7.85101 16.8763 8.12347 17.28 8.25774L17.2879 13.8176ZM5.81597 9.36817L9.38608 11.3593V15.3416L6.10951 13.5189C6.02027 13.4674 5.94635 13.3945 5.89491 13.3073C5.84348 13.2201 5.81628 13.1215 5.81597 13.0211V9.36817ZM13.5512 8.38027L9.9811 10.3637L6.41099 8.38027L9.67963 6.54996C9.77202 6.50103 9.87571 6.47538 9.9811 6.47538C10.0865 6.47538 10.1902 6.50103 10.2826 6.54996L13.5512 8.38027ZM10.5761 11.3593L14.1462 9.36817V13.0211C14.1459 13.1215 14.1187 13.2201 14.0673 13.3073C14.0159 13.3945 13.9419 13.4674 13.8527 13.5189L10.5761 15.3416V11.3593Z" fill="#7C86FF"/>
</svg>
