<svg width="51" height="60" viewBox="0 0 51 60" fill="none" xmlns="http://www.w3.org/2000/svg">
<path d="M19.4531 24.3802H33.8692V23.289C33.8692 22.3885 33.26 21.6523 32.5174 21.6523H26.5674V20.6994C26.5674 19.3434 25.6566 18.245 24.5404 18.245H21.08C20.5393 18.245 20.031 18.501 19.6465 18.9666C19.262 19.4322 19.0517 20.0432 19.0517 20.6994V21.6537H13.1017C12.358 21.6523 11.75 22.3884 11.75 23.289V37.9062L16.2943 26.759C16.8458 25.4015 18.2059 24.3802 19.4531 24.3802ZM20.4035 20.6994C20.4035 20.4826 20.4768 20.2774 20.603 20.1232C20.7292 19.9661 20.8998 19.8803 21.0788 19.8803H24.5393C24.913 19.8803 25.2145 20.2469 25.2145 20.6994V21.6537H20.4036V20.6994H20.4035Z" fill="#7C86FF"/>
<path d="M38.8698 26.0145H19.4529C18.7103 26.0145 17.832 26.675 17.5064 27.481L12.2845 40.2897C11.9553 41.0943 12.2953 41.7548 13.0379 41.7548H32.4548C33.1974 41.7548 34.0769 41.0957 34.4037 40.2897L39.6244 27.481C39.9524 26.675 39.6148 26.0145 38.8698 26.0145Z" fill="#7C86FF"/>
</svg>
