<svg version="1.2" xmlns="http://www.w3.org/2000/svg" viewBox="0 0 115 87" width="115" height="87">
	<title>afdb_logo_verti-ai</title>
	<style>
		.s0 { fill: #1f2321 } 
		.s1 { fill: #1f211f } 
		.s2 { fill: #009349 } 
	</style>
	<g id="Calque 1">
		<g id="&lt;Group&gt;">
			<g id="&lt;Group&gt;">
				<path id="&lt;Compound Path&gt;" class="s0" d="m4.4 79.6c-0.3 0.5-0.9 0.7-1.4 0.7-1.3 0-2.1-1.1-2.1-2.2 0-1.3 0.7-2.4 2.1-2.4 1 0 1.7 0.4 1.9 1.5h-0.6c-0.1-0.7-0.6-1-1.3-1-1.1 0-1.5 0.9-1.5 1.9 0 0.9 0.5 1.7 1.5 1.7 0.9 0 1.4-0.6 1.4-1.4h-1.4v-0.5h1.9v2.3h-0.3z"/>
				<path id="&lt;Compound Path&gt;" fill-rule="evenodd" class="s0" d="m6.1 75.8h2.1c0.8 0 1.3 0.5 1.3 1.2 0 0.5-0.2 0.9-0.8 1.1 0.5 0.1 0.6 0.5 0.7 0.9 0 0.4 0 0.9 0.2 1.2h-0.6c-0.2-0.2-0.1-0.7-0.2-1.1 0-0.4-0.1-0.8-0.7-0.8h-1.4v1.9h-0.6zm1.8 2c0.5 0 1-0.1 1-0.8 0-0.4-0.2-0.7-0.8-0.7h-1.4v1.5z"/>
				<path id="&lt;Compound Path&gt;" fill-rule="evenodd" class="s0" d="m12.5 75.7c1.3 0 2.1 1.1 2.1 2.3 0 1.2-0.8 2.3-2.1 2.3-1.4 0-2.1-1.1-2.1-2.3 0-1.2 0.7-2.3 2.1-2.3zm0 4.1c1 0 1.5-0.9 1.5-1.8 0-0.9-0.5-1.8-1.5-1.8-1.1 0-1.5 0.9-1.5 1.8 0 0.9 0.4 1.8 1.5 1.8z"/>
				<path id="&lt;Compound Path&gt;" class="s0" d="m19.1 78.6c0 1.1-0.7 1.7-1.7 1.7-1.2 0-1.8-0.5-1.8-1.7v-2.8h0.5v2.8c0 0.8 0.5 1.2 1.3 1.2 0.7 0 1.1-0.4 1.1-1.2v-2.8h0.6z"/>
				<path id="&lt;Compound Path&gt;" fill-rule="evenodd" class="s0" d="m20.3 75.8h1.9c0.9 0 1.4 0.5 1.4 1.3 0 0.8-0.5 1.3-1.4 1.3h-1.3v1.8h-0.6zm0.6 2.1h1.1c0.7 0 1-0.3 1-0.8 0-0.5-0.3-0.8-1-0.8h-1.1z"/>
				<path id="&lt;Compound Path&gt;" class="s0" d="m24.6 75.8h3v0.5h-2.4v1.4h2.3v0.5h-2.3v1.5h2.4v0.5h-3z"/>
				<path id="&lt;Compound Path&gt;" fill-rule="evenodd" class="s0" d="m30.7 75.8h1.5c1.3 0 2.1 0.7 2.1 2.1 0 1.5-0.7 2.3-2.1 2.3h-1.5zm0.6 3.9h0.9c0.4 0 1.5-0.2 1.5-1.8 0-1-0.4-1.6-1.4-1.6h-1z"/>
				<path id="&lt;Compound Path&gt;" class="s0" d="m35.3 75.8h3v0.5h-2.4v1.4h2.3v0.5h-2.3v1.5h2.5v0.5h-3.1z"/>
				<path id="&lt;Compound Path&gt;" class="s0" d="m41.4 75.8h0.6v3.9h2.3v0.5h-2.9z"/>
				<path id="&lt;Compound Path&gt;" fill-rule="evenodd" class="s0" d="m46.3 75.8h0.7l1.7 4.4h-0.7l-0.5-1.3h-1.8l-0.5 1.3h-0.6zm-0.4 2.5h1.5l-0.8-2z"/>
				<path id="&lt;Compound Path&gt;" fill-rule="evenodd" class="s0" d="m51.4 75.8h1.6c0.4 0 0.9 0 1.2 0.2 0.3 0.1 0.5 0.5 0.5 0.9 0 0.5-0.2 0.8-0.7 1 0.6 0.1 0.9 0.5 0.9 1 0 0.7-0.5 1.3-1.3 1.3h-2.2zm0.6 1.9h1.2c0.6 0 0.9-0.3 0.9-0.7 0-0.6-0.4-0.7-0.9-0.7h-1.2zm0 2h1.5c0.5 0 0.8-0.3 0.8-0.8 0-0.6-0.5-0.7-0.9-0.7h-1.4z"/>
				<path id="&lt;Compound Path&gt;" fill-rule="evenodd" class="s0" d="m57.1 75.8h0.7l1.7 4.4h-0.7l-0.4-1.3h-1.9l-0.5 1.3h-0.6zm-0.4 2.5h1.5l-0.7-2h-0.1z"/>
				<path id="&lt;Compound Path&gt;" class="s0" d="m60.2 75.8h0.7l2.3 3.6v-3.6h0.5v4.4h-0.6l-2.3-3.5v3.5h-0.6z"/>
				<path id="&lt;Compound Path&gt;" fill-rule="evenodd" class="s0" d="m68.5 80.6l-0.6-0.6q-0.5 0.3-1.1 0.3c-1.4 0-2.1-1.1-2.1-2.3 0-1.2 0.7-2.3 2.1-2.3 1.4 0 2.1 1.1 2.1 2.3 0 0.7-0.2 1.3-0.6 1.7l0.5 0.5zm-1.2-1.6l0.5 0.4c0.4-0.3 0.5-0.8 0.5-1.4 0-0.8-0.4-1.8-1.5-1.8-1 0-1.5 1-1.5 1.8 0 0.9 0.5 1.8 1.5 1.8q0.4 0 0.6-0.1l-0.5-0.4z"/>
				<path id="&lt;Compound Path&gt;" class="s0" d="m73.4 78.6c0 1.1-0.6 1.7-1.7 1.7-1.1 0-1.8-0.5-1.8-1.7v-2.8h0.6v2.8c0 0.8 0.4 1.2 1.2 1.2 0.8 0 1.2-0.4 1.2-1.2v-2.8h0.5z"/>
				<path id="&lt;Compound Path&gt;" class="s0" d="m74.7 75.8h3v0.5h-2.4v1.4h2.2v0.5h-2.2v1.5h2.4v0.5h-3z"/>
				<path id="&lt;Compound Path&gt;" fill-rule="evenodd" class="s0" d="m82 75.8h0.6l1.7 4.4h-0.6l-0.5-1.3h-1.9l-0.4 1.3h-0.6zm-0.5 2.5h1.5l-0.7-2z"/>
				<path id="&lt;Compound Path&gt;" class="s0" d="m85.1 75.8h2.8v0.5h-2.3v1.4h2v0.5h-2v2h-0.5z"/>
				<path id="&lt;Compound Path&gt;" fill-rule="evenodd" class="s0" d="m88.9 75.8h2c0.9 0 1.4 0.5 1.4 1.2 0 0.5-0.3 0.9-0.8 1.1 0.5 0.1 0.6 0.5 0.7 0.9 0 0.4 0 0.9 0.2 1.2h-0.6c-0.2-0.2-0.1-0.7-0.2-1.1 0-0.4-0.1-0.8-0.7-0.8h-1.4v1.9h-0.6zm1.8 2c0.5 0 1-0.1 1-0.8 0-0.4-0.2-0.7-0.8-0.7h-1.4v1.5z"/>
				<path id="&lt;Compound Path&gt;" class="s0" d="m93.4 75.8h0.6v4.4h-0.6z"/>
				<path id="&lt;Compound Path&gt;" class="s0" d="m98.4 77.1c-0.1-0.6-0.6-0.9-1.2-0.9-1.1 0-1.5 0.9-1.5 1.8 0 1 0.4 1.8 1.5 1.8 0.7 0 1.2-0.5 1.2-1.3h0.6c-0.1 1.1-0.8 1.8-1.9 1.8-1.3 0-2-1-2-2.3 0-1.3 0.7-2.3 2.1-2.3 0.9 0 1.6 0.5 1.8 1.4z"/>
				<path id="&lt;Compound Path&gt;" fill-rule="evenodd" class="s0" d="m101.2 75.8h0.7l1.7 4.4h-0.7l-0.4-1.3h-1.9l-0.5 1.3h-0.6zm-0.4 2.5h1.5l-0.7-2h-0.1z"/>
				<path id="&lt;Compound Path&gt;" class="s0" d="m104.4 75.8h0.5v4.4h-0.5z"/>
				<path id="&lt;Compound Path&gt;" class="s0" d="m106.2 75.8h0.7l2.3 3.6v-3.6h0.5v4.4h-0.6l-2.3-3.5v3.5h-0.6z"/>
				<path id="&lt;Compound Path&gt;" class="s0" d="m111 75.8h3v0.5h-2.4v1.4h2.2v0.5h-2.2v1.5h2.4v0.5h-3z"/>
				<g id="&lt;Group&gt;">
					<path id="&lt;Compound Path&gt;" fill-rule="evenodd" class="s0" d="m23.9 82.5h1.5c1.3 0 2 0.7 2 2.1 0 1.4-0.6 2.3-2 2.3h-1.5zm0.5 3.8h1c0.4 0 1.5-0.1 1.5-1.7 0-1-0.4-1.7-1.5-1.7h-1z"/>
					<path id="&lt;Compound Path&gt;" class="s0" d="m28.5 82.5h3v0.5h-2.4v1.4h2.2v0.5h-2.2v1.5h2.4v0.5h-3z"/>
					<path id="&lt;Compound Path&gt;" fill-rule="evenodd" class="s0" d="m34.6 82.5h1.5c1.3 0 2.1 0.7 2.1 2.1 0 1.4-0.7 2.3-2.1 2.3h-1.5zm0.5 3.8h1c0.4 0 1.5-0.1 1.5-1.7 0-1-0.4-1.7-1.5-1.7h-1z"/>
					<path id="&lt;Compound Path&gt;" class="s0" d="m39.2 82.5h3v0.5h-2.4v1.4h2.2v0.5h-2.2v1.5h2.4v0.5h-3zm1.5-1.2h0.7l-0.8 0.8h-0.4z"/>
					<path id="&lt;Compound Path&gt;" class="s0" d="m45 86.9h-0.7l-1.5-4.4h0.6l1.2 3.8h0.1l1.2-3.8h0.6z"/>
					<path id="&lt;Compound Path&gt;" class="s0" d="m47.3 82.5h3v0.5h-2.4v1.4h2.3v0.5h-2.3v1.5h2.4v0.5h-3z"/>
					<path id="&lt;Compound Path&gt;" class="s0" d="m51.4 82.5h0.6v3.9h2.3v0.5h-2.9z"/>
					<path id="&lt;Compound Path&gt;" fill-rule="evenodd" class="s0" d="m56.9 82.4c1.4 0 2.1 1.1 2.1 2.3 0 1.2-0.7 2.3-2.1 2.3-1.3 0-2-1.1-2-2.3 0-1.2 0.7-2.3 2-2.3zm0 4.1c1.1 0 1.6-0.9 1.6-1.8 0-0.9-0.5-1.8-1.6-1.8-1 0-1.5 0.9-1.5 1.8 0 0.9 0.5 1.8 1.5 1.8z"/>
					<path id="&lt;Compound Path&gt;" fill-rule="evenodd" class="s0" d="m60.1 82.5h1.9c0.9 0 1.3 0.5 1.3 1.3 0 0.8-0.4 1.3-1.3 1.3h-1.3v1.8h-0.6zm0.6 2h1.1c0.6 0.1 0.9-0.2 0.9-0.8 0-0.5-0.3-0.8-0.9-0.8h-1.1z"/>
					<path id="&lt;Compound Path&gt;" fill-rule="evenodd" class="s0" d="m64.4 82.5h1.9c0.8 0 1.3 0.5 1.3 1.3 0 0.8-0.5 1.3-1.3 1.3h-1.4v1.8h-0.5zm0.5 2h1.2c0.6 0.1 0.9-0.2 0.9-0.8 0-0.5-0.3-0.8-0.9-0.8h-1.2z"/>
					<path id="&lt;Compound Path&gt;" class="s0" d="m68.6 82.5h3.1v0.5h-2.5v1.4h2.3v0.5h-2.3v1.5h2.5v0.5h-3.1z"/>
					<path id="&lt;Compound Path&gt;" class="s0" d="m72.7 82.5h0.8l1.4 3.7 1.4-3.7h0.8v4.4h-0.6v-3.7l-1.4 3.7h-0.5l-1.3-3.7v3.7h-0.6z"/>
					<path id="&lt;Compound Path&gt;" class="s0" d="m78.4 82.5h3v0.5h-2.5v1.4h2.3v0.5h-2.3v1.5h2.5v0.5h-3z"/>
					<path id="&lt;Compound Path&gt;" class="s0" d="m82.4 82.5h0.6l2.3 3.5v-3.5h0.6v4.4h-0.7l-2.2-3.5v3.5h-0.6z"/>
					<path id="&lt;Compound Path&gt;" class="s0" d="m88.1 83h-1.4v-0.5h3.5v0.5h-1.5v3.9h-0.6z"/>
				</g>
				<path id="&lt;Compound Path&gt;" fill-rule="evenodd" class="s0" d="m2.3 65.8h0.7l1.7 4.4h-0.7l-0.4-1.3h-1.9l-0.5 1.3h-0.6zm-0.4 2.6h1.5l-0.8-2.1z"/>
				<path id="&lt;Compound Path&gt;" class="s0" d="m5.1 65.8h2.9v0.5h-2.3v1.4h2v0.5h-2v2h-0.6z"/>
				<path id="&lt;Compound Path&gt;" fill-rule="evenodd" class="s0" d="m8.6 65.8h2.1c0.8 0 1.3 0.5 1.3 1.2 0 0.5-0.2 0.9-0.8 1.1 0.5 0.1 0.6 0.5 0.7 0.9 0 0.4 0 0.9 0.2 1.2h-0.6c-0.2-0.2-0.1-0.6-0.2-1.1 0-0.4-0.1-0.8-0.7-0.8h-1.4v1.9h-0.6zm1.8 2c0.5 0 1-0.1 1-0.8 0-0.4-0.2-0.7-0.8-0.7h-1.4v1.5z"/>
				<path id="&lt;Compound Path&gt;" class="s0" d="m12.8 65.8h0.6v4.4h-0.6z"/>
				<path id="&lt;Compound Path&gt;" class="s0" d="m17.5 67.2c-0.2-0.7-0.7-1-1.3-1-1 0-1.5 0.9-1.5 1.8 0 1 0.5 1.8 1.5 1.8 0.8 0 1.2-0.5 1.3-1.2h0.6c-0.1 1-0.8 1.7-1.9 1.7-1.4 0-2-1-2-2.3 0-1.2 0.7-2.3 2-2.3 0.9 0 1.7 0.5 1.8 1.5z"/>
				<path id="&lt;Compound Path&gt;" fill-rule="evenodd" class="s0" d="m20 65.8h0.6l1.7 4.4h-0.6l-0.5-1.3h-1.8l-0.5 1.3h-0.6zm-0.5 2.6h1.5l-0.7-2.1z"/>
				<path id="&lt;Compound Path&gt;" class="s0" d="m22.8 65.8h0.6l2.3 3.6v-3.6h0.5v4.4h-0.6l-2.3-3.5v3.5h-0.5z"/>
				<path id="&lt;Compound Path&gt;" fill-rule="evenodd" class="s0" d="m28.9 65.8h1.5c1.3 0 2.1 0.7 2.1 2.1 0 1.5-0.7 2.3-2.1 2.3h-1.5zm0.6 3.9h0.9c0.4 0 1.5-0.1 1.5-1.7 0-1.1-0.4-1.7-1.5-1.7h-0.9z"/>
				<path id="&lt;Compound Path&gt;" class="s0" d="m33.2 65.8h3v0.5h-2.4v1.4h2.2v0.5h-2.2v1.5h2.4v0.5h-3z"/>
				<path id="&lt;Compound Path&gt;" class="s0" d="m38.6 70.2h-0.6l-1.6-4.4h0.7l1.2 3.8 1.3-3.8h0.6z"/>
				<path id="&lt;Compound Path&gt;" class="s0" d="m40.7 65.8h3v0.5h-2.5v1.4h2.3v0.5h-2.3v1.5h2.5v0.5h-3z"/>
				<path id="&lt;Compound Path&gt;" class="s0" d="m44.4 65.8h0.6v3.9h2.3v0.5h-2.9z"/>
				<path id="&lt;Compound Path&gt;" fill-rule="evenodd" class="s0" d="m49.6 65.7c1.4 0 2.1 1.1 2.1 2.3 0 1.2-0.7 2.3-2.1 2.3-1.4 0-2.1-1.1-2.1-2.3 0-1.2 0.7-2.3 2.1-2.3zm0 4.1c1.1 0 1.5-0.9 1.5-1.8 0-0.9-0.4-1.8-1.5-1.8-1 0-1.5 0.9-1.5 1.8 0 0.9 0.5 1.8 1.5 1.8z"/>
				<path id="&lt;Compound Path&gt;" fill-rule="evenodd" class="s0" d="m52.4 65.8h1.9c0.9 0 1.4 0.5 1.4 1.3 0 0.8-0.5 1.3-1.4 1.3h-1.3v1.8h-0.6zm0.6 2.1h1.2c0.6 0 0.9-0.3 0.9-0.8 0-0.5-0.3-0.8-0.9-0.8h-1.2z"/>
				<path id="&lt;Compound Path&gt;" class="s0" d="m56.4 65.8h0.8l1.4 3.7 1.4-3.7h0.8v4.4h-0.6v-3.6l-1.4 3.6h-0.5l-1.3-3.6v3.6h-0.6z"/>
				<path id="&lt;Compound Path&gt;" class="s0" d="m61.7 65.8h3v0.5h-2.4v1.4h2.3v0.5h-2.3v1.5h2.5v0.5h-3.1z"/>
				<path id="&lt;Compound Path&gt;" class="s0" d="m65.5 65.8h0.6l2.3 3.6v-3.6h0.5v4.4h-0.6l-2.3-3.5v3.5h-0.5z"/>
				<path id="&lt;Compound Path&gt;" class="s0" d="m70.9 66.3h-1.5v-0.5h3.5v0.5h-1.5v3.9h-0.5z"/>
				<path id="&lt;Compound Path&gt;" fill-rule="evenodd" class="s0" d="m75.1 65.8h1.6c0.4 0 0.9 0 1.1 0.2 0.3 0.2 0.5 0.5 0.5 0.9 0 0.5-0.2 0.8-0.6 1 0.5 0.1 0.8 0.5 0.8 1 0 0.7-0.4 1.3-1.3 1.3h-2.1zm0.6 1.9h1.1c0.7 0 1-0.3 1-0.7 0-0.6-0.5-0.7-1-0.7h-1.1zm0 2h1.4c0.5 0 0.8-0.3 0.8-0.8 0-0.6-0.4-0.7-0.9-0.7h-1.3z"/>
				<path id="&lt;Compound Path&gt;" fill-rule="evenodd" class="s0" d="m80.5 65.8h0.6l1.7 4.4h-0.6l-0.5-1.3h-1.9l-0.5 1.3h-0.5zm-0.5 2.6h1.5l-0.7-2.1z"/>
				<path id="&lt;Compound Path&gt;" class="s0" d="m83.2 65.8h0.6l2.3 3.6h0.1v-3.6h0.5v4.4h-0.6l-2.3-3.5v3.5h-0.6z"/>
				<path id="&lt;Compound Path&gt;" class="s0" d="m87.6 65.8h0.6v2.2l2.2-2.2h0.8l-1.8 1.8 1.9 2.6h-0.8l-1.5-2.2-0.8 0.7v1.5h-0.6z"/>
				<path id="&lt;Compound Path&gt;" class="s0" d="m96.7 69.7c-0.3 0.4-0.9 0.6-1.4 0.6-1.3 0-2.1-1.1-2.1-2.2 0-1.3 0.7-2.4 2.1-2.4 0.9 0 1.7 0.5 1.9 1.5h-0.6c-0.1-0.7-0.7-1-1.3-1-1.1 0-1.5 0.9-1.5 1.9 0 0.9 0.5 1.7 1.5 1.7 0.9 0 1.4-0.6 1.4-1.4h-1.4v-0.5h1.9v2.3h-0.4z"/>
				<path id="&lt;Compound Path&gt;" fill-rule="evenodd" class="s0" d="m98.1 65.8h2c0.8 0 1.3 0.5 1.3 1.2 0 0.5-0.2 0.9-0.7 1.1 0.5 0.1 0.6 0.5 0.6 0.9 0.1 0.4 0.1 0.9 0.3 1.2h-0.6c-0.2-0.2-0.1-0.6-0.2-1.1-0.1-0.4-0.2-0.8-0.7-0.8h-1.5v1.9h-0.5zm1.8 2c0.5 0 1-0.1 1-0.8 0-0.4-0.3-0.7-0.8-0.7h-1.5v1.5z"/>
				<path id="&lt;Compound Path&gt;" fill-rule="evenodd" class="s0" d="m104.1 65.7c1.4 0 2.1 1.1 2.1 2.3 0 1.2-0.7 2.3-2.1 2.3-1.4 0-2.1-1.1-2.1-2.3 0-1.2 0.7-2.3 2.1-2.3zm0 4.1c1.1 0 1.5-0.9 1.5-1.8 0-0.9-0.4-1.8-1.5-1.8-1.1 0-1.5 0.9-1.5 1.8 0 0.9 0.4 1.8 1.5 1.8z"/>
				<path id="&lt;Compound Path&gt;" class="s0" d="m110.4 68.6c0 1.1-0.6 1.7-1.7 1.7-1.2 0-1.8-0.5-1.8-1.7v-2.8h0.6v2.8c0 0.8 0.4 1.2 1.2 1.2 0.7 0 1.1-0.4 1.1-1.2v-2.8h0.6z"/>
				<path id="&lt;Compound Path&gt;" fill-rule="evenodd" class="s0" d="m111.3 65.8h1.9c0.9 0 1.4 0.5 1.4 1.3 0 0.8-0.5 1.3-1.4 1.3h-1.3v1.8h-0.6zm0.6 2.1h1.1c0.7 0 1-0.3 1-0.8 0-0.5-0.3-0.8-1-0.8h-1.1z"/>
			</g>
			<g id="&lt;Group&gt;">
				<path id="&lt;Compound Path&gt;" fill-rule="evenodd" class="s1" d="m110 29.5c0 5.7-2.5 11.2-6.8 15.3-4.3 4-10.1 6.3-15.9 6.3-5.8 0-11.1-2.2-15-6.3-3.9-4-6-9.5-6-15.3 0-2 0.2-3.9 0.7-5.7q0 0 0-0.1 0 0 0 0c2.2-8.8 9.7-15.3 18.9-16q0.8-0.1 1.7-0.1 0 0 0 0 0 0 0 0 0 0 0 0 0 0 0 0 0 0 0 0 0 0 0 0 0 0 0 0 0 0 0 0 0 0 0 0 0 0 0 0 0 0 0 0c5.9 0 11.4 2.3 15.7 6.4 4.1 4 6.4 9.2 6.6 14.8q0 0 0 0 0 0.3 0.1 0.7zm-1.4 6.5q-1.2 1.1-3.3 1.9-0.8 1.6-1.9 3-1.5 2.2-3.6 3.9c1.7-0.3 3.1-0.7 4.1-1.1 2.1-2.3 3.7-4.9 4.7-7.7zm-3.7 2q-0.8 0.3-1.6 0.5-1.7 3.7-4.9 6.6 0.5-0.1 1-0.2c2.6-2.2 4.4-4.6 5.5-6.9zm-36.4-6.3q1 0.4 2.1 0.8c-0.4-2.4-0.3-4.8 0.1-7.3q0 0 0 0-1-0.3-1.8-0.5-0.3 1.2-0.4 2.5c-0.2 1-0.3 2.6 0 4.5zm-1.2-8q0.6 0.3 1.4 0.6c0.6-2.2 1.4-4.3 2.6-6.2q-0.8-0.3-1.4-0.6c-1.2 1.9-2.1 4-2.6 6.2zm1.7 0.7q0.8 0.3 1.7 0.5c0.4-2.2 1.1-4.4 2-6.4q-0.6-0.1-1.2-0.4c-1.1 2-2 4.1-2.5 6.3zm12.6-15.7c-2.8 0.8-5.4 2.2-7.6 4.1q0.5 0.3 1 0.5c1.9-1.9 4.1-3.3 6.4-4.3q0.2-0.1 0.4-0.2-0.1 0-0.1-0.1-0.1 0-0.1 0zm11.2-0.2q-0.1 0-0.1 0.1c2.5 0.8 4.9 2.3 7 4.2q0.6-0.3 1.1-0.6c-2.5-1.8-5.2-3-8-3.7zm12 7.5q-0.7 0.5-1.4 1c1.3 2 2.3 4.2 3 6.5q1.1-0.5 2-1.2c-0.8-2.2-2-4.4-3.6-6.3zm-1.7 1.1q-0.5 0.3-1.2 0.6c1.1 2 2 4.3 2.6 6.6q0.8-0.3 1.7-0.7c-0.7-2.3-1.7-4.5-3.1-6.5zm1.5 9.2q-0.1-0.8-0.3-1.6-1.1 0.4-2.2 0.7 0.4 1.9 0.4 3.8 0 1.5-0.1 3 1.3-0.4 2.4-0.9 0.2-2.4-0.2-5zm-33.8 6.2q1.1 0.4 2.2 0.7c-0.3-1.9-0.3-3.7-0.2-5.5q0-1 0.2-2-1.1-0.2-2.1-0.5 0 0.1 0 0.1c-0.4 2.3-0.4 4.8-0.1 7.2zm31.5-3.3q-0.1-1.9-0.4-3.7-1.8 0.5-3.8 0.8 0.3 2.4 0.2 4.9 0 1.1-0.1 2.1 2-0.4 3.9-1 0.2-1.6 0.2-3.1zm-29.3-1.4c-0.1 1.7 0 3.6 0.3 5.4q1.8 0.5 3.8 0.8-0.5-3-0.4-6.2 0-0.7 0.1-1.4-1.9-0.3-3.6-0.6-0.1 0.9-0.2 2zm24.9-1.4q-2.2 0.3-4.4 0.5 0.1 1.1 0.1 2.1 0 2.7-0.2 5.2 2.3-0.3 4.5-0.8 0.1-1.1 0.2-2.2 0-2.4-0.2-4.8zm-20.6 7.6q2.4 0.4 4.8 0.5c-0.3-2.5-0.5-5-0.5-7.6q-2.4-0.2-4.6-0.5 0 0.7-0.1 1.4-0.1 3.2 0.4 6.2zm16-7q-2.8 0.2-5.5 0.2c0.1 2.5 0.1 5 0.2 7.4q2.6-0.1 5.1-0.4 0.2-2.5 0.2-5.2 0-1 0-2zm-10.9 7.5q2.6 0.2 5.3 0.1c0-2.4-0.1-4.9-0.1-7.4q-2.9 0-5.7-0.3c0 2.6 0.1 5.1 0.5 7.6zm3.1-23.9q-1.2 2-2 4.6 1.9 0.1 3.8 0.1-0.1-2.8 0-4.6-0.1 0-0.2 0-0.2 0-0.4 0-0.6 0-1.2-0.1zm1.2-0.1q0.3 0 0.6 0 0-1.7 0.1-2.4-1 1-1.8 2.3 0.6 0.1 1.1 0.1zm-3.3 4.9q-0.7 2.2-1 4.6 2.4 0.3 5 0.2-0.1-2.6-0.1-4.7-0.1 0-0.3 0-1.8 0-3.6-0.1zm-1.1 4.9q-0.4 3.1-0.4 6.4 2.7 0.2 5.7 0.2-0.1-1.8-0.1-3.6-0.1-1.5-0.1-2.8-0.2 0-0.4 0-2.4 0-4.7-0.2zm0.1 14.5q0.4 2.8 1 5.5 2.2 0 4.4 0c0-1.7 0-3.6-0.1-5.4q-0.9 0-1.9 0-1.7 0-3.4-0.1zm1.1 5.7q0.7 2.9 1.6 5.5 1.3 0 2.6 0c0.1-1.6 0.1-3.5 0.1-5.5q-0.9 0.1-1.8 0.1-1.2 0-2.5-0.1zm1.7 5.8q1 2.4 2.1 4.4c0.2-0.8 0.3-2.4 0.4-4.4q-1.2 0-2.5 0zm2.4 4.1q1.5-1.8 2.6-4.2-1.1 0-2.2 0c-0.1 1.9-0.2 3.4-0.4 4.2zm2.7-4.5q1.1-2.5 1.8-5.6-2 0.2-4.1 0.2c0 2 0 3.9 0 5.5q1.1-0.1 2.3-0.1zm1.9-5.8q0.6-2.7 0.9-5.7-2.5 0.3-5.1 0.4 0 2.9 0 5.5 2.1-0.1 4.2-0.2zm1-13.4q-0.1-3.4-0.7-6.5-2.4 0.3-4.8 0.3 0 1.4 0 2.8 0.1 1.8 0.1 3.6 2.7 0 5.4-0.2zm-0.7-6.7q-0.5-2.5-1.2-4.7-1.9 0.2-3.7 0.2 0 2.2 0.1 4.7 2.4 0 4.8-0.2zm-1.3-5q-0.8-2.5-1.9-4.6-0.9 0.3-1.8 0.3c0 1.3 0 2.8 0 4.6q1.9 0 3.7-0.3zm-2.1-4.8q-0.7-1.2-1.5-2.2c-0.1 0.3-0.1 1.2-0.1 2.5q0.8-0.1 1.6-0.3zm0.3 0q0.5-0.2 1-0.4-1.1-1-2.3-1.7 0.7 0.9 1.3 2.1zm-2.5-2q-1.3 0.8-2.5 1.9 0.5 0.1 1 0.2 0.7-1.1 1.5-2.1zm-2.7 2q-2.1 2-3.7 4.6 1.3 0.2 2.7 0.3 0.8-2.5 2-4.6-0.5-0.1-1-0.3zm-3.8 4.8q-1.2 2.1-2 4.6 1.8 0.3 3.7 0.4 0.4-2.4 1.1-4.6-1.5-0.2-2.8-0.4zm-2.1 4.8q-1 3-1.3 6.4 2.2 0.3 4.6 0.5 0-3.3 0.5-6.4-2-0.2-3.8-0.5zm-0.9 14.5q0.5 3 1.5 5.7 2.1 0.2 4.3 0.3-0.7-2.7-1-5.5-2.5-0.2-4.8-0.5zm1.6 6c0.9 2.1 1.9 4 3.2 5.7q1.3 0 2.7 0-1-2.6-1.7-5.5-2.1-0.1-4.2-0.2zm3.4 6c1.3 1.7 2.8 3.1 4.6 4.3q-1.1-1.9-2-4.3-0.1 0-0.1 0-1.3 0-2.5 0zm5.4 4.3c2.2-1.1 4-2.6 5.6-4.7q-1.5 0.2-3 0.2-1.1 2.6-2.6 4.5zm5.8-5q1.8-2.5 2.9-5.7-2 0.3-4.1 0.4-0.7 3-1.8 5.5 1.5 0 3-0.2zm3-5.9q0.9-2.8 1.3-6-2.2 0.4-4.6 0.7-0.3 3-0.9 5.7 2.2-0.2 4.2-0.4zm1.3-13.6c-0.3-2.2-0.8-4.5-1.5-6.5q-1.8 0.3-3.7 0.6 0.6 3.1 0.8 6.5 2.2-0.2 4.4-0.6zm-1.6-6.8q-0.3-1-0.7-2-0.6-1.3-1.3-2.5-1.3 0.3-2.7 0.5 0.6 2.2 1.1 4.6 1.9-0.2 3.6-0.6zm-2.1-4.7q-1.6-2.7-3.6-4.6-0.5 0.2-1.1 0.4 1.1 2 2 4.6 1.4-0.1 2.7-0.4zm0.3-0.1q1.2-0.2 2.4-0.6-2.3-2.9-5.3-4.5-0.4 0.3-0.8 0.5 2.1 1.9 3.7 4.6zm-3.1-5.2q-1.4-0.8-2.9-1.2 1.1 0.7 2.1 1.6 0.4-0.2 0.8-0.4zm-4.7-1.2q-1.8 0.5-3.5 1.5 0.4 0.2 0.9 0.4 1.2-1.1 2.6-1.9zm-3.7 1.6c-1.9 1.1-3.6 2.6-5.1 4.5q1.1 0.3 2.3 0.5 1.6-2.6 3.7-4.5-0.5-0.2-0.9-0.5zm-5.3 4.7q-1.5 2-2.6 4.5 1.4 0.4 3 0.6 0.8-2.4 2-4.6-1.2-0.2-2.4-0.5zm-2.7 4.8c-0.8 1.9-1.4 4-1.8 6.3q1.7 0.4 3.6 0.6 0.3-3.3 1.2-6.3-1.6-0.3-3-0.6zm-1.7 14.3c0.3 2 0.9 4.1 1.8 6.1q1.7 0.2 3.5 0.4-1-2.7-1.5-5.8-1.9-0.3-3.8-0.7zm1.9 6.4c1 2.1 2.3 4.1 4.1 5.9q1.2 0.1 2.5 0.2c-1.2-1.7-2.2-3.7-3.1-5.7q-1.8-0.2-3.5-0.4zm-2.3 5.1c3.6 3.6 8.3 5.6 13.5 5.8q-6-1.8-10.2-5c-1.3-0.2-2.5-0.5-3.3-0.8zm6.3 1.1q-0.5 0-1.1-0.1c1.6 1.4 3.6 2.6 5.9 3.6q-2.8-1.5-4.8-3.5zm24.3-2c-1.1 0.4-2.5 0.8-4.1 1.1q-4.5 3.6-11.1 5.6c5.4-0.2 10.7-2.4 14.7-6.2q0.2-0.2 0.5-0.5zm-6.9 1.2c1.7-1.8 2.9-3.9 3.8-6.1q-1.7 0.4-3.6 0.7-1.1 3.2-2.9 5.7 1.4-0.1 2.7-0.3zm4-6.3c0.8-2.1 1.3-4.3 1.5-6.5q-1.9 0.6-3.9 1.1-0.4 3.2-1.3 6 1.9-0.2 3.7-0.6zm1.3-13.8c-0.4-2.3-1.1-4.5-2.1-6.6q-1.5 0.5-3.1 0.9c0.7 2.1 1.1 4.3 1.4 6.6q1.9-0.4 3.8-0.9zm-2.2-6.8q-0.7-1.4-1.5-2.7-0.5-0.9-1.1-1.6-1.2 0.4-2.5 0.7 0.6 1.1 1.2 2.4 0.4 1 0.8 2.1 1.6-0.4 3.1-0.9zm0.2-0.1q0.9-0.3 1.7-0.7-1.3-2.2-2.9-4.1-0.7 0.3-1.4 0.5 0.6 0.7 1.1 1.5 0.9 1.3 1.5 2.8zm-1.4-5c-1.8-2-3.9-3.5-6.1-4.5q-0.3 0.3-0.6 0.4 3 1.7 5.3 4.6 0.7-0.2 1.4-0.5zm-7.7-5q-0.9-0.2-1.8-0.3 1.3 0.4 2.6 1.1 0.3-0.2 0.5-0.4-0.7-0.2-1.3-0.4zm-4.6-0.3q-2.1 0.2-4 0.9 0.3 0.3 0.7 0.5 1.6-0.9 3.3-1.4zm-4.9 1.3q-2.5 1.3-4.6 3.6-0.4 0.4-0.7 0.8 0.8 0.2 1.6 0.5 2.2-2.9 5.1-4.6-0.4-0.3-0.7-0.6-0.4 0.2-0.7 0.3zm-5.4 4.6q-1.7 2-2.9 4.5 0.9 0.3 1.9 0.5 0.9-2.2 2.1-4 0.3-0.3 0.5-0.5-0.9-0.3-1.6-0.5zm-3 4.7c-0.9 2-1.5 4.2-1.9 6.4q0.9 0.2 2 0.5c0.3-2.2 0.9-4.4 1.8-6.4q-1-0.2-1.9-0.5zm-2.1 14.2c0.3 2.2 1 4.4 2 6.4q1 0.2 2 0.4c-0.9-2-1.4-4.1-1.8-6.2q-1.1-0.3-2.2-0.6zm2.1 6.7c1.1 2.2 2.7 4.3 4.8 6.2q0.6 0.1 1.2 0.1c-1.7-1.8-3-3.8-4-6q-1-0.1-2-0.3zm-0.2 0q-1-0.2-2-0.4c1.2 2.2 3 4.4 5.6 6.4q0.5 0.1 1.1 0.2-2.6-2.4-4.3-5.4-0.2-0.4-0.4-0.8zm4 6.4c1.6 1.1 3.5 2.2 5.7 3.2q-2.6-1.3-4.6-3.1-0.6-0.1-1.1-0.1zm16.5 2.8q3.4-1.6 5.7-3.5-0.4 0.1-0.8 0.2-2.2 1.8-4.9 3.3zm4.8-3.6q3.2-2.8 4.9-6.5-1 0.3-2.1 0.6c-0.9 2.2-2.2 4.2-3.8 6.1q0.5-0.1 1-0.2zm5.1-6.7q1.4-3.2 1.7-6.8-1.2 0.5-2.4 0.9c-0.2 2.1-0.7 4.3-1.5 6.4q1.1-0.2 2.2-0.5zm1.1-14c-0.5-2.3-1.4-4.6-2.5-6.6q-0.8 0.4-1.7 0.7c1 2.1 1.7 4.3 2.1 6.6q1.1-0.3 2.1-0.7zm-1.2-7.5q-1.1-1.6-2.4-2.9-0.4-0.5-0.9-0.9-0.4 0.2-0.8 0.3 1.6 1.9 2.9 4.1 0.6-0.3 1.2-0.6zm-3.5-4c-1.7-1.5-3.6-2.7-5.7-3.6 1.8 1 3.5 2.3 4.9 3.9q0.4-0.1 0.8-0.3zm-7-4.5q-0.6-0.1-1.2-0.2 0.6 0.1 1.1 0.3 0-0.1 0.1-0.1zm-17.2 5q0.2 0.1 0.5 0.2 0.3-0.4 0.7-0.8 1.1-1.3 2.4-2.3-1.9 1.2-3.6 2.9zm-0.2 0.2q-0.2 0.2-0.4 0.4-1.8 1.8-3 3.9 0.5 0.2 1.1 0.4 1.2-2.5 2.8-4.5-0.3-0.1-0.5-0.2zm-6.6 18.4c0.2 2 0.8 4.4 2.1 6.8q0.9 0.2 1.9 0.4c-0.9-2-1.6-4.2-1.9-6.5q-1.1-0.3-2.1-0.7zm-0.3-0.1q-0.8-0.3-1.6-0.7c0.2 2.4 0.7 4.8 1.6 6.9q1 0.3 2.1 0.6-1.7-3.2-2.1-6.8zm0.2 6.5c0.9 2.3 2.3 4.3 4 6.1q0 0 0 0c0.7 0.4 1.9 0.7 3.5 1q-2.5-2-4.2-4.4-0.7-1-1.3-2.1-1.1-0.3-2-0.6zm11.2 7.7c1.8 1.7 4 3.2 6.7 4.3q-2.4-1.7-4.2-4.2-1.3 0-2.5-0.1zm14 2.1q2.2-1.2 4-2.7-0.5 0-0.9 0.1-1.4 1.4-3.1 2.6zm11.5-10.5c1.2-2.6 1.6-5 1.8-7.1q-0.9 0.5-1.8 0.9-0.3 3.6-1.7 6.8 0.9-0.3 1.7-0.6zm1.8-7.4c0.1-1.3 0-2.5-0.1-3.3q-0.2-1.6-0.6-3.2-0.8 0.4-1.7 0.8 0.2 0.8 0.3 1.6 0.4 2.6 0.3 5 0.9-0.4 1.8-0.9zm0.3-0.1q1.3-0.7 2.5-1.5-0.1-3.2-1.2-6.1-1 0.6-2.1 1.1 0.5 1.6 0.7 3.3 0.2 1.6 0.1 3.2zm-4.1-16q-1-1-2.1-1.8-0.5 0.3-1.1 0.5 0.5 0.5 0.9 0.9 1.3 1.4 2.4 2.9 0.8-0.4 1.4-0.9-0.7-0.9-1.5-1.6zm-20.2-5.9q-0.5 0.2-1 0.3 0.1 0.1 0.1 0.1 0.5-0.2 0.9-0.4zm-12.8 9q0.6 0.3 1.3 0.5 1.3-2.1 3.1-4 0.1-0.2 0.3-0.3-0.5-0.2-1-0.5-2.2 1.9-3.7 4.3zm-3.6 12.2q0 0.7 0.1 1.4 0.8 0.4 1.6 0.7-0.2-2.2 0-4.5 0.2-1.3 0.5-2.5-0.9-0.3-1.5-0.6c-0.4 1.7-0.7 3.6-0.7 5.5zm23 20.6c2.8-1.1 5-2.6 6.8-4.5q-1.3 0.2-2.6 0.3c-1.3 1.8-3 3.3-4.9 4.4q0.4-0.1 0.7-0.2zm20.2-20.6q0-0.3 0-0.5-1.2 0.8-2.5 1.5c-0.2 2.5-0.7 4.8-1.8 7 1.4-0.5 2.6-1.2 3.4-2q0.9-2.9 0.9-6z"/>
				<g id="&lt;Group&gt;">
					<path id="&lt;Path&gt;" class="s2" d="m93.7 21.2c0.1 0.2 0 0.4 0.4 0.4 0 1.7 1.5 2.6 2.6 3.5 0.2 0.2 0.3 0.9 0.5 0.9 1 0 2.1-0.3 2.8-0.9 0.4 1.5-0.7 2.6-1.5 3.9-0.5 1.1-2 1.7-2.9 2.6-0.4 0.4-0.8 0.9-0.8 1.3 0.2 1.5 0.8 3 0.4 4.4-0.4 0.8-1.7 1-2.4 1.7-0.2 0.6 0.5 1.3 0.2 1.8-0.4 0.2-1.1 0.4-1.1 0.8-0.4 1.5-1.7 2.4-2.6 3.1-1 0.8-2.1 0-3.2 0.6-0.2 0-0.2-0.4-0.5-0.4 0-0.3 0.1-0.7 0-0.9-0.6-1.7-1-3.3-1.7-5.2 0-0.4-0.4-0.7-0.4-1.1-0.2-0.9 0-1.8 0.8-2.6 0.2-0.5-0.2-1.3-0.2-1.8-0.2-0.4-0.8-0.8-0.8-1.2 0.2-0.3-0.1-0.5 0-0.7-1.3-0.5-0.7-2-0.3-3 0-0.1-0.4-0.3-0.6-0.5-0.4 0.4-0.7 0.2-1.1 0.2 0-0.6-0.6-1-0.9-1.1-0.6 0-1.3 0.3-1.9 0.5-0.9 0-1.6 0-2.6-0.2-0.7 0-1.4-0.9-2-1.4-0.6-0.8-0.7-1.5-1.1-2.3-0.6-0.7 0-1.4 0.5-2.2 0.4-0.7 0-1.7 0.4-2.2 0.6-0.8 0.9-1.7 1.9-2 0.5-0.2 1.4-0.2 1.4-0.8 0.2-0.9 1.3-1.7 1.9-1.7 1.8-0.1 4.3-0.5 5.9 0.2-0.3 0.6-0.5 1.5 0.2 1.7 0.7 0.2 0.9 0.6 1.5 0.9h0.5c0 0.2 0 0.4 0.2 0.4 0.8 0 0-0.9 0.6-1.1 1.3-0.2 2.6 1.6 3.7 0.5 0.2 0.2 0.4 0.2 0.5 0.2 0.6 1.3 0.8 2.8 1.7 3.7z"/>
					<path id="&lt;Path&gt;" class="s2" d="m98.3 40.1c-0.2 0.5-0.1 1.1-0.7 1.3l-0.2 0.2c-0.2 0-0.2 0.2-0.2 0.4h-0.5c-0.2-0.8-0.8-1.3-0.4-2.1 0.6-0.5 0.4-1.3 0.6-1.8 0.3-1 1.8-1 2.2-2.2 0.5 0.3 0.4 1.1 0.4 1.6-0.2 0-0.4 0-0.4 0.2 0.2 0.9-0.4 1.7-0.8 2.4z"/>
				</g>
				<g id="&lt;Group&gt;">
					<g id="&lt;Group&gt;">
						<path id="&lt;Path&gt;" class="s1" d="m60.9 35.5l-0.1-0.5 2.6-0.6 0.4 1.9-0.4 0.1-0.3-1.3-0.6 0.1 0.2 1.1-0.4 0.1-0.3-1.1z"/>
						<path id="&lt;Compound Path&gt;" fill-rule="evenodd" class="s1" d="m64.3 37.6c0.1 0.4 0.3 1.3-0.9 1.7-1.2 0.4-1.6-0.5-1.7-0.8-0.2-0.3-0.3-1.3 0.9-1.6 1.2-0.4 1.6 0.4 1.7 0.7zm-2.2 0.8c0.1 0.2 0.4 0.6 1.1 0.4 0.7-0.3 0.8-0.7 0.7-1-0.1-0.3-0.4-0.7-1.1-0.4-0.7 0.2-0.8 0.7-0.7 1z"/>
						<path id="&lt;Path&gt;" class="s1" d="m65.5 40.7l0.2 0.4-2.5 1.1-0.2-0.5 1.3-1.7-1.7 0.7-0.3-0.4 2.5-1.1 0.2 0.5-1.2 1.7z"/>
						<path id="&lt;Compound Path&gt;" fill-rule="evenodd" class="s1" d="m65.9 41.5l0.6 1c0.4 0.8-0.1 1.4-0.6 1.6-0.5 0.3-1.3 0.5-1.7-0.2l-0.6-1zm-1.7 1.6l0.3 0.4c0.2 0.4 0.7 0.3 1.1 0.1 0.7-0.4 0.5-0.8 0.4-1l-0.3-0.4z"/>
						<path id="&lt;Path&gt;" class="s1" d="m65.9 45.1c-0.1 0.1-0.3 0.4 0 0.8 0.2 0.2 0.4 0.4 0.6 0.2 0.2-0.1 0.1-0.3 0-0.6l-0.1-0.2c-0.2-0.5-0.3-0.8 0.1-1.2 0.3-0.2 0.8-0.3 1.3 0.4 0.5 0.6 0.2 1.1-0.1 1.3l-0.3-0.4c0.1-0.1 0.3-0.3 0-0.7-0.1-0.2-0.3-0.3-0.5-0.2-0.2 0.1-0.1 0.3-0.1 0.4l0.3 0.6c0.1 0.4 0.2 0.7-0.2 1-0.6 0.5-1.2-0.2-1.3-0.3-0.6-0.8-0.2-1.3 0-1.5z"/>
						<path id="&lt;Compound Path&gt;" fill-rule="evenodd" class="s1" d="m67.6 48.5l-0.4-0.4 2.6-1.2 0.4 0.5-1.2 2.5-0.5-0.4 0.3-0.5-0.7-0.7zm1-0.5l0.5 0.5 0.5-1z"/>
						<path id="&lt;Path&gt;" class="s1" d="m69.8 50.6l-0.4-0.3 1.7-2.1 1.4 1.3-0.3 0.3-1-0.8-0.4 0.4 0.9 0.8-0.3 0.3-0.9-0.7z"/>
						<path id="&lt;Compound Path&gt;" fill-rule="evenodd" class="s1" d="m72.8 49.6l1.1 0.8c0.5 0.4 0.3 0.9 0.2 1.1-0.1 0.3-0.4 0.4-0.7 0.3 0.1 0.2 0.2 0.3-0.1 0.7-0.2 0.4-0.3 0.4-0.2 0.6l-0.5-0.3c0-0.2 0.1-0.3 0.2-0.5 0.2-0.3 0.3-0.4-0.1-0.7l-0.4-0.3-0.6 0.8-0.5-0.3zm0.3 1.7c0.3 0.1 0.5 0.1 0.6-0.1 0.1-0.1 0.2-0.3-0.1-0.5l-0.6-0.4-0.4 0.6z"/>
						<path id="&lt;Path&gt;" class="s1" d="m74 53.7l-0.5-0.3 1.4-2.3 0.5 0.3z"/>
						<path id="&lt;Path&gt;" class="s1" d="m76.9 53.1c0-0.1 0.1-0.4-0.3-0.6-0.3-0.1-0.7-0.2-1.1 0.5-0.2 0.4-0.2 0.9 0.2 1.1q0.5 0.2 0.8-0.2l0.5 0.3c-0.4 0.4-0.9 0.6-1.5 0.3-0.6-0.3-0.9-0.9-0.5-1.8 0.5-0.8 1.2-1 1.8-0.7 0.7 0.4 0.7 1 0.6 1.4z"/>
						<path id="&lt;Compound Path&gt;" fill-rule="evenodd" class="s1" d="m77.5 55.4l-0.6-0.2 1.9-2.2 0.6 0.2-0.1 2.8-0.6-0.2 0.1-0.5-0.9-0.4zm0.6-0.8l0.7 0.2v-1.1z"/>
						<path id="&lt;Path&gt;" class="s1" d="m80.3 56.3l-0.6-0.1 0.8-2.6 0.5 0.2z"/>
						<path id="&lt;Path&gt;" class="s1" d="m83 54.2l0.5 0.1-0.5 2.7-0.6-0.2-0.6-2.1-0.4 1.9-0.5-0.1 0.5-2.6 0.6 0.1 0.6 2v0.1z"/>
						<path id="&lt;Compound Path&gt;" fill-rule="evenodd" class="s1" d="m85 54.5l1.1 0.1c0.9 0.1 1.1 0.9 1 1.4 0 0.5-0.3 1.3-1.2 1.3l-1.1-0.1zm0.4 2.2l0.5 0.1c0.5 0 0.7-0.4 0.7-0.9 0-0.8-0.3-0.9-0.6-0.9h-0.5z"/>
						<path id="&lt;Path&gt;" class="s1" d="m89.5 55.1h-1.4v0.6h1.3v0.4l-1.3 0.1v0.7l1.5-0.1v0.5l-2 0.1-0.1-2.7 2-0.1z"/>
						<path id="&lt;Compound Path&gt;" fill-rule="evenodd" class="s1" d="m90.9 54.5l1.1-0.2c0.9-0.2 1.2 0.6 1.3 1.1 0.1 0.5 0 1.4-0.8 1.5l-1.2 0.2zm0.9 2.1l0.6-0.1c0.4-0.1 0.5-0.5 0.4-1-0.1-0.7-0.5-0.7-0.7-0.7l-0.6 0.1z"/>
						<path id="&lt;Path&gt;" class="s1" d="m95.4 54l-1.3 0.3 0.1 0.6 1.3-0.4 0.1 0.5-1.3 0.3 0.2 0.7 1.4-0.4 0.2 0.5-2 0.5-0.7-2.6 1.9-0.5z"/>
						<path id="&lt;Path&gt;" class="s1" d="m97.1 52.8l0.6-0.2 0.1 2.8-0.5 0.2-1.8-2.1 0.6-0.3 1.2 1.7z"/>
						<path id="&lt;Path&gt;" class="s1" d="m99.9 52l-1.3 0.7 0.3 0.5 1.1-0.6 0.2 0.4-1.1 0.6 0.3 0.6 1.3-0.7 0.2 0.5-1.8 0.9-1.2-2.4 1.8-0.9z"/>
						<path id="&lt;Path&gt;" class="s1" d="m101.7 53l1.1-0.7 0.2 0.4-1.6 1-1.4-2.3 0.5-0.3z"/>
						<path id="&lt;Compound Path&gt;" fill-rule="evenodd" class="s1" d="m102.8 49.5c0.2-0.2 1.1-0.7 1.8 0.3 0.8 1 0.1 1.7-0.1 1.9-0.3 0.2-1.1 0.7-1.9-0.3-0.8-1-0.1-1.7 0.2-1.9zm1.4 1.8c0.2-0.2 0.4-0.6 0-1.2-0.5-0.5-0.9-0.4-1.2-0.3-0.2 0.2-0.4 0.6 0 1.2 0.5 0.6 0.9 0.5 1.2 0.3z"/>
						<path id="&lt;Compound Path&gt;" fill-rule="evenodd" class="s1" d="m106.3 50.1l-0.4 0.3-1.8-1.9 0.8-0.8c0.4-0.4 0.9-0.4 1.2 0 0.2 0.2 0.5 0.7 0 1.2l-0.5 0.5zm-0.6-1.4c0.3-0.3 0.1-0.5 0-0.6-0.1-0.2-0.3-0.2-0.6 0.1l-0.3 0.3 0.6 0.5z"/>
						<path id="&lt;Compound Path&gt;" fill-rule="evenodd" class="s1" d="m108.1 48.2l-0.3 0.4-2-1.8 0.8-0.9c0.3-0.4 0.8-0.4 1.1 0 0.2 0.1 0.6 0.6 0.1 1.2l-0.4 0.4zm-0.7-1.3c0.3-0.3 0-0.5-0.1-0.6-0.2-0.1-0.3-0.1-0.6 0.2l-0.2 0.3 0.5 0.5z"/>
						<path id="&lt;Path&gt;" class="s1" d="m108.8 43.7l-0.8 1.2 0.5 0.3 0.7-1.1 0.4 0.3-0.7 1.1 0.5 0.4 0.9-1.3 0.4 0.3-1.2 1.7-2.2-1.6 1.1-1.6z"/>
						<path id="&lt;Path&gt;" class="s1" d="m112.2 42.1l-0.2 0.5-1.9-1.1h-0.1l1.7 1.5-0.2 0.5-2.2-0.6 1.9 1.1-0.2 0.4-2.3-1.3 0.4-0.7 2 0.6-1.6-1.4 0.4-0.7z"/>
						<path id="&lt;Path&gt;" class="s1" d="m111.3 38.8l-0.6 1.3 0.6 0.3 0.5-1.2 0.4 0.1-0.5 1.2 0.6 0.3 0.6-1.4 0.4 0.2-0.8 1.9-2.4-1 0.8-1.8z"/>
						<path id="&lt;Path&gt;" class="s1" d="m111.5 36.7l0.1-0.5 2.6 0.8-0.2 0.5-2.1 0.5 1.8 0.6-0.2 0.5-2.5-0.8 0.2-0.6 2-0.4v-0.1z"/>
						<path id="&lt;Path&gt;" class="s1" d="m114.6 35.2l-0.1 0.5-2.2-0.4-0.2 0.8-0.4-0.1 0.4-2.1 0.5 0.1-0.2 0.8z"/>
					</g>
					<g id="&lt;Group&gt;">
						<path id="&lt;Compound Path&gt;" fill-rule="evenodd" class="s1" d="m66.1 16.2l-0.3 0.5-1.8-2.1 0.3-0.6 2.8 0.5-0.3 0.5-0.6-0.1-0.5 0.9zm-0.7-0.8l0.3-0.6-1-0.3z"/>
						<path id="&lt;Path&gt;" class="s1" d="m67.6 13.7l-0.3 0.5-2.2-1.5 1.1-1.6 0.4 0.3-0.8 1.1 0.5 0.3 0.7-0.9 0.4 0.2-0.7 1z"/>
						<path id="&lt;Compound Path&gt;" fill-rule="evenodd" class="s1" d="m66.6 10.6l0.9-1c0.4-0.5 0.9-0.3 1.1-0.1 0.2 0.1 0.3 0.4 0.2 0.7 0.2-0.1 0.3-0.2 0.7 0.2 0.3 0.2 0.4 0.3 0.5 0.2l0.1 0.1-0.5 0.4c-0.1 0-0.2-0.1-0.4-0.3-0.3-0.2-0.4-0.3-0.7 0l-0.3 0.5 0.7 0.6-0.3 0.5zm1.7-0.2q0.3-0.3 0-0.5c-0.1-0.1-0.3-0.2-0.5 0l-0.5 0.5 0.5 0.5z"/>
						<path id="&lt;Path&gt;" class="s1" d="m70.7 10l-0.4 0.4-1.8-1.9 0.4-0.4z"/>
						<path id="&lt;Path&gt;" class="s1" d="m71.2 7.2c-0.1-0.1-0.4-0.3-0.7 0-0.2 0.2-0.4 0.6 0.1 1.1 0.3 0.4 0.7 0.6 1.1 0.3q0.3-0.3 0.1-0.8l0.4-0.3c0.3 0.5 0.3 1-0.2 1.5-0.6 0.4-1.3 0.4-1.9-0.3-0.6-0.7-0.5-1.4 0.1-1.9 0.6-0.5 1.2-0.3 1.4 0z"/>
						<path id="&lt;Compound Path&gt;" fill-rule="evenodd" class="s1" d="m73.5 7.7l-0.5 0.3-0.7-2.7 0.5-0.4 2.3 1.7-0.5 0.3-0.5-0.3-0.8 0.5zm-0.3-1l0.6-0.4-0.9-0.7z"/>
						<path id="&lt;Path&gt;" class="s1" d="m75.6 3.3l0.4-0.3 1.3 2.4-0.5 0.2-1.9-1.1 0.9 1.7-0.4 0.2-1.3-2.3 0.5-0.3 1.8 1.1z"/>
						<path id="&lt;Compound Path&gt;" fill-rule="evenodd" class="s1" d="m77.8 2.2l1.1-0.4c0.9-0.3 1.3 0.4 1.5 0.9 0.2 0.5 0.2 1.4-0.6 1.7l-1.1 0.3zm1.3 1.9l0.5-0.2c0.4-0.1 0.4-0.6 0.3-1-0.3-0.7-0.7-0.7-0.9-0.6l-0.5 0.2z"/>
						<path id="&lt;Path&gt;" class="s1" d="m82.6 1.3l-1.3 0.3 0.1 0.6 1.3-0.4 0.1 0.5-1.3 0.3 0.2 0.7 1.4-0.4 0.1 0.5-1.9 0.5-0.7-2.6 1.9-0.5z"/>
						<path id="&lt;Path&gt;" class="s1" d="m84.9 0.5l0.5-0.1-0.5 2.7-0.5 0.1-1.3-2.5 0.6-0.1 0.9 1.9z"/>
						<path id="&lt;Path&gt;" class="s1" d="m88 0.7l-1.5 0.1 0.1 0.5h1.3v0.5h-1.3v0.7l1.5-0.1v0.5l-2 0.1-0.1-2.7h1.9z"/>
						<path id="&lt;Path&gt;" class="s1" d="m89.1 2.5h1.3v0.5l-1.9-0.1 0.2-2.6h0.5z"/>
						<path id="&lt;Compound Path&gt;" fill-rule="evenodd" class="s1" d="m92.3 0.5c0.4 0.1 1.3 0.4 1.1 1.6-0.2 1.2-1.2 1.2-1.5 1.2-0.3-0.1-1.2-0.4-1.1-1.6 0.2-1.2 1.2-1.2 1.5-1.2zm-0.3 2.3c0.3 0.1 0.7 0 0.8-0.8 0.1-0.7-0.2-1-0.5-1-0.3-0.1-0.8 0.1-0.9 0.8-0.1 0.7 0.3 1 0.6 1z"/>
						<path id="&lt;Compound Path&gt;" fill-rule="evenodd" class="s1" d="m94.1 3.7l-0.5-0.2 0.7-2.6 1.2 0.4c0.4 0.1 0.7 0.5 0.5 1 0 0.2-0.3 0.8-1 0.6l-0.6-0.2zm0.8-1.2c0.4 0.1 0.5-0.2 0.5-0.3 0.1-0.2 0-0.4-0.3-0.5l-0.5-0.1-0.2 0.8z"/>
						<path id="&lt;Path&gt;" class="s1" d="m98.3 5.1l-0.4-0.2 0.8-2.1-1.3 1.9-0.5-0.2 0.3-2.2-0.8 2-0.5-0.1 1-2.5 0.8 0.3-0.4 2.1h0.1l1.2-1.8 0.7 0.3z"/>
						<path id="&lt;Path&gt;" class="s1" d="m101.6 4.3l-1.3-0.7-0.2 0.5 1.1 0.6-0.2 0.5-1.2-0.6-0.3 0.6 1.3 0.7-0.2 0.4-1.8-1 1.3-2.3 1.7 0.9z"/>
						<path id="&lt;Path&gt;" class="s1" d="m103.8 5.2l0.4 0.3-1.4 2.2-0.5-0.3 0.2-2.2h-0.1l-1 1.6-0.4-0.3 1.4-2.2 0.5 0.3-0.1 2.1z"/>
						<path id="&lt;Path&gt;" class="s1" d="m104.1 8.7l-0.5-0.3 1.4-1.7-0.6-0.5 0.3-0.4 1.7 1.4-0.3 0.4-0.6-0.6z"/>
						<path id="&lt;Path&gt;" class="s1" d="m106.1 10.6l-0.4-0.4 1.9-1.8 1.3 1.4-0.3 0.3-0.9-1-0.5 0.4 0.8 0.9-0.3 0.3-0.8-0.9z"/>
						<path id="&lt;Path&gt;" class="s1" d="m109.2 13c-0.5 0.4-1 0.3-1.4-0.3-0.2-0.2-0.3-0.5-0.3-0.8q0.1-0.4 0.4-0.6l1.4-1.1 0.4 0.5-1.4 1c-0.3 0.3-0.3 0.5-0.1 0.7 0.2 0.3 0.4 0.3 0.7 0.1l1.4-1 0.3 0.4z"/>
						<path id="&lt;Path&gt;" class="s1" d="m111.9 14l0.3 0.5-2.3 1.3-0.3-0.4 1.1-1.9v-0.1l-1.6 1-0.3-0.4 2.3-1.4 0.3 0.5-1.1 1.9z"/>
						<path id="&lt;Compound Path&gt;" fill-rule="evenodd" class="s1" d="m112.6 15.2l0.5 1.1c0.4 0.8-0.2 1.3-0.7 1.5-0.5 0.2-1.4 0.4-1.7-0.4l-0.5-1.1zm-1.8 1.4l0.2 0.5c0.2 0.4 0.7 0.4 1.1 0.2 0.7-0.3 0.6-0.7 0.5-0.9l-0.2-0.5z"/>
					</g>
				</g>
				<g id="&lt;Group&gt;">
					<path id="&lt;Compound Path&gt;" fill-rule="evenodd" class="s1" d="m29.9 57.6c-15.9 0-28.8-12.9-28.8-28.8 0-15.9 12.9-28.8 28.8-28.8 15.9 0 28.8 12.9 28.8 28.8 0 15.9-12.9 28.8-28.8 28.8zm0-57.4c-15.8 0-28.6 12.8-28.6 28.6 0 15.8 12.8 28.6 28.6 28.6 15.7 0 28.6-12.8 28.6-28.6 0-15.8-12.9-28.6-28.6-28.6z"/>
				</g>
				<g id="&lt;Group&gt;">
					<path id="&lt;Compound Path&gt;" fill-rule="evenodd" class="s1" d="m29.9 52.5c-13.1 0-23.8-10.6-23.8-23.7 0-13.1 10.7-23.7 23.8-23.7 13.1 0 23.7 10.6 23.7 23.7 0 13.1-10.6 23.7-23.7 23.7zm0-47.2c-13 0-23.5 10.6-23.5 23.5 0 12.9 10.5 23.5 23.5 23.5 12.9 0 23.4-10.6 23.4-23.5 0-12.9-10.5-23.5-23.4-23.5z"/>
				</g>
				<g id="&lt;Group&gt;">
					<path id="&lt;Path&gt;" class="s2" d="m39.8 18.1c0.2 0.2 0 0.5 0.5 0.5 0 2.3 2 3.5 3.5 4.8 0.2 0.3 0.5 1.3 0.7 1.3 1.3 0 2.8-0.5 3.8-1.3 0.5 2-1 3.5-2 5.3-0.7 1.5-2.8 2.2-4 3.5-0.5 0.5-1 1.2-1 1.7 0.2 2 1 4 0.5 6.1-0.5 1-2.3 1.2-3.3 2.2-0.2 0.8 0.8 1.8 0.3 2.5-0.5 0.3-1.5 0.5-1.5 1-0.5 2-2.3 3.3-3.5 4.3-1.3 1-2.8 0-4.3 0.7-0.2 0-0.2-0.5-0.7-0.5 0-0.5 0.2-1 0-1.2-0.8-2.3-1.3-4.5-2.3-7 0-0.5-0.5-1-0.5-1.5-0.3-1.3 0-2.6 1-3.6 0.2-0.7-0.3-1.7-0.3-2.5-0.2-0.5-1-1-1-1.5 0.3-0.5-0.2-0.7 0-1-1.7-0.7-1-2.7-0.5-4 0-0.2-0.5-0.5-0.7-0.7-0.5 0.5-1 0.2-1.5 0.2 0-0.7-0.8-1.2-1.3-1.5-0.7 0-1.7 0.5-2.5 0.8-1.2 0-2.2 0-3.5-0.3-1 0-2-1.2-2.7-2-0.8-1-1-2-1.5-3-0.8-1 0-2 0.7-3 0.5-1 0-2.3 0.5-3 0.8-1 1.3-2.3 2.5-2.8 0.8-0.2 2-0.2 2-1 0.3-1.2 1.8-2.2 2.5-2.2 2.5-0.3 5.8-0.8 8 0.2-0.5 0.8-0.7 2 0.3 2.3 1 0.2 1.3 0.7 2 1.2h0.8c0 0.3 0 0.5 0.2 0.5 1 0 0-1.2 0.8-1.5 1.7-0.2 3.5 2.3 5 0.8 0.2 0.2 0.5 0.2 0.7 0.2 0.8 1.8 1 3.8 2.3 5z"/>
					<path id="&lt;Path&gt;" class="s2" d="m46.1 43.7c-0.4 0.7-0.3 1.5-1.1 1.8l-0.2 0.2c-0.3 0-0.3 0.3-0.3 0.5h-0.7c-0.3-1-1-1.7-0.5-2.7 0.7-0.8 0.5-1.8 0.7-2.5 0.5-1.3 2.6-1.3 3.1-3.1 0.7 0.5 0.5 1.5 0.5 2.3-0.3 0-0.5 0-0.5 0.3 0.2 1.2-0.5 2.2-1 3.2z"/>
				</g>
				<g id="&lt;Group&gt;">
					<g id="&lt;Group&gt;">
						<path id="&lt;Compound Path&gt;" fill-rule="evenodd" class="s1" d="m2.4 27.8l0.1-1.3c0.1-0.7 0.5-0.8 0.8-0.8 0.4 0.1 0.5 0.3 0.5 0.4 0.2-0.3 0.4-0.4 0.7-0.4 0.2 0 0.4 0.2 0.5 0.3 0.1 0.2 0.2 0.3 0.2 0.9l-0.1 1.1zm2.2-0.4l0.1-0.7q0-0.4-0.4-0.4c-0.2 0-0.3 0.2-0.3 0.4l-0.1 0.7zm-1.1-0.1v-0.7c0-0.2 0-0.4-0.2-0.4-0.3 0-0.3 0.1-0.4 0.4v0.6z"/>
						<path id="&lt;Compound Path&gt;" fill-rule="evenodd" class="s1" d="m5.4 25l-0.1 0.5-2.5-1.4 0.2-0.6 2.7-0.4-0.1 0.6h-0.5l-0.2 1zm-0.9-0.5l0.1-0.7-1.1 0.1v0.1z"/>
						<path id="&lt;Path&gt;" class="s1" d="m3.7 20.4l0.2-0.5 2.5 0.8-0.1 0.5-2.1 0.5 1.8 0.6-0.2 0.5-2.5-0.8 0.1-0.6 2.1-0.4v-0.1z"/>
						<path id="&lt;Compound Path&gt;" fill-rule="evenodd" class="s1" d="m7.6 18.3l-0.4 0.1c0.1 0.3 0 0.6-0.1 0.7-0.1 0.4-0.6 1.2-1.8 0.7-1.1-0.5-0.9-1.4-0.7-1.7 0.1-0.4 0.6-1.2 1.7-0.7 0.4 0.2 0.7 0.4 0.8 0.6l0.4-0.1zm-1.4 0.1l0.3-0.1q-0.1-0.2-0.4-0.4c-0.7-0.2-1.1 0.1-1.2 0.3-0.1 0.3-0.1 0.8 0.6 1.1 0.7 0.3 1-0.1 1.1-0.3q0.1-0.2 0.1-0.3l-0.3 0.1z"/>
						<path id="&lt;Path&gt;" class="s1" d="m8 15.2c0.6 0.4 0.7 0.9 0.3 1.5-0.1 0.2-0.3 0.5-0.6 0.6q-0.4 0-0.7-0.2l-1.6-0.8 0.3-0.5 1.5 0.8c0.4 0.2 0.6 0.1 0.7-0.1 0.2-0.4 0.1-0.6-0.1-0.8l-1.6-0.8 0.3-0.5z"/>
						<path id="&lt;Path&gt;" class="s1" d="m8.5 12.4l-0.9 1.1 0.5 0.4 0.8-1.1 0.3 0.3-0.7 1 0.5 0.4 0.9-1.2 0.4 0.3-1.2 1.6-2.2-1.5 1.2-1.6z"/>
						<path id="&lt;Compound Path&gt;" fill-rule="evenodd" class="s1" d="m11.5 12.2l-0.4 0.4-1.3-2.5 0.5-0.5 2.5 1.2-0.4 0.4-0.5-0.3-0.7 0.8zm-0.5-1l0.5-0.5-1-0.5z"/>
						<path id="&lt;Path&gt;" class="s1" d="m13.5 10.2l-0.4 0.3-1.7-2 1.4-1.2 0.3 0.3-1 0.9 0.4 0.5 0.9-0.8 0.3 0.4-0.9 0.7z"/>
						<path id="&lt;Compound Path&gt;" fill-rule="evenodd" class="s1" d="m13.3 6.9l1.1-0.8c0.6-0.4 1 0 1.1 0.1 0.2 0.3 0.2 0.6 0.1 0.8 0.2 0 0.3 0 0.6 0.4 0.2 0.3 0.3 0.4 0.4 0.3l0.1 0.1-0.5 0.3c-0.1 0-0.2-0.1-0.4-0.4-0.2-0.3-0.3-0.4-0.6-0.1l-0.5 0.3 0.6 0.9-0.5 0.3zm1.7 0.2c0.2-0.1 0.3-0.3 0.1-0.5 0-0.1-0.2-0.3-0.5-0.1l-0.6 0.4 0.5 0.6z"/>
						<path id="&lt;Path&gt;" class="s1" d="m17.5 7.3l-0.5 0.3-1.3-2.3 0.4-0.3z"/>
						<path id="&lt;Path&gt;" class="s1" d="m18.7 4.7c-0.1-0.2-0.4-0.4-0.8-0.2-0.2 0.1-0.5 0.5-0.1 1.1 0.2 0.5 0.5 0.8 1 0.6q0.4-0.3 0.3-0.7l0.5-0.3c0.1 0.6 0 1.1-0.6 1.4-0.7 0.3-1.3 0.1-1.8-0.7-0.4-0.8-0.1-1.5 0.5-1.8 0.7-0.4 1.3 0 1.5 0.3z"/>
						<path id="&lt;Compound Path&gt;" fill-rule="evenodd" class="s1" d="m20.7 5.7l-0.5 0.2-0.1-2.8 0.6-0.2 1.8 2.2-0.5 0.2-0.4-0.5-0.9 0.3zm0-1l0.6-0.3-0.7-0.8z"/>
						<path id="&lt;Path&gt;" class="s1" d="m23.4 4.8l-0.5 0.2-0.8-2.6 0.6-0.1z"/>
						<path id="&lt;Path&gt;" class="s1" d="m25 1.7l0.5-0.1 0.5 2.7-0.5 0.1-1.5-1.7 0.4 1.9-0.5 0.1-0.6-2.6 0.6-0.1 1.4 1.6z"/>
						<path id="&lt;Path&gt;" class="s1" d="m28.2 1.8l-1.4 0.1v0.6l1.3-0.1 0.1 0.4-1.3 0.2 0.1 0.7 1.4-0.2 0.1 0.5-2 0.2-0.3-2.7 1.9-0.2z"/>
						<path id="&lt;Compound Path&gt;" fill-rule="evenodd" class="s1" d="m30.1 1.3h1.1c0.9 0.1 1.1 0.8 1.1 1.3-0.1 0.6-0.3 1.4-1.2 1.4l-1.1-0.1zm0.4 2.3h0.5c0.5 0 0.7-0.4 0.7-0.9 0-0.8-0.4-0.8-0.6-0.9h-0.5z"/>
						<path id="&lt;Path&gt;" class="s1" d="m34.9 2.2l-1.4-0.2-0.1 0.5 1.3 0.2-0.1 0.5-1.3-0.2-0.1 0.7 1.5 0.2-0.1 0.5-2-0.3 0.4-2.7 1.9 0.3z"/>
						<path id="&lt;Compound Path&gt;" fill-rule="evenodd" class="s1" d="m36.8 2.1l1.1 0.4c0.9 0.2 0.8 1 0.7 1.5-0.2 0.5-0.6 1.3-1.5 1l-1.1-0.3zm-0.1 2.3l0.5 0.1c0.5 0.1 0.8-0.3 0.9-0.7 0.2-0.7-0.1-0.9-0.4-1l-0.5-0.1z"/>
						<path id="&lt;Path&gt;" class="s1" d="m41.2 4.2l-1.3-0.5-0.2 0.5 1.2 0.5-0.2 0.4-1.2-0.5-0.2 0.7 1.3 0.5-0.2 0.5-1.8-0.8 1-2.5 1.8 0.8z"/>
						<path id="&lt;Path&gt;" class="s1" d="m43.5 4.8l0.5 0.3-2.1 1.9-0.4-0.2 0.4-2.8 0.5 0.3-0.4 2z"/>
						<path id="&lt;Path&gt;" class="s1" d="m45.9 6.9l-1.2-0.8-0.3 0.5 1 0.7-0.2 0.4-1.1-0.7-0.4 0.6 1.2 0.8-0.2 0.4-1.7-1.2 1.5-2.2 1.6 1.1z"/>
						<path id="&lt;Path&gt;" class="s1" d="m45.8 9l1 0.9-0.3 0.3-1.5-1.2 1.7-2 0.5 0.3z"/>
						<path id="&lt;Compound Path&gt;" fill-rule="evenodd" class="s1" d="m49.5 9.4c0.3 0.2 0.8 1-0.1 1.9-0.8 0.9-1.6 0.3-1.8 0.1-0.3-0.3-0.8-1 0-1.9 0.9-0.9 1.7-0.4 1.9-0.1zm-1.6 1.6c0.2 0.3 0.6 0.4 1.2-0.1 0.5-0.5 0.3-1 0.1-1.2-0.2-0.2-0.6-0.4-1.2 0.2-0.5 0.5-0.3 0.9-0.1 1.1z"/>
						<path id="&lt;Compound Path&gt;" fill-rule="evenodd" class="s1" d="m49.1 13l-0.3-0.4 2.1-1.7 0.7 1c0.4 0.4 0.3 0.8-0.1 1.1-0.2 0.2-0.8 0.5-1.2-0.1l-0.4-0.5zm1.4-0.5c0.3 0.4 0.5 0.2 0.6 0.1 0.2-0.2 0.2-0.3 0-0.6l-0.3-0.4-0.6 0.5z"/>
						<path id="&lt;Compound Path&gt;" fill-rule="evenodd" class="s1" d="m50.6 15l-0.3-0.5 2.2-1.4 0.7 1c0.3 0.4 0.2 0.9-0.3 1.2-0.2 0.1-0.7 0.3-1.1-0.3l-0.4-0.5zm1.5-0.4c0.2 0.4 0.5 0.2 0.6 0.2 0.2-0.2 0.2-0.4 0-0.6l-0.2-0.4-0.7 0.4z"/>
						<path id="&lt;Path&gt;" class="s1" d="m54.5 17.4l-0.7-1.3-0.5 0.3 0.6 1.1-0.4 0.2-0.6-1.1-0.6 0.3 0.7 1.3-0.4 0.2-1-1.8 2.4-1.2 0.9 1.8z"/>
						<path id="&lt;Path&gt;" class="s1" d="m53.7 21.2l-0.2-0.4 2.1-0.8-2.3 0.3-0.2-0.5 1.9-1.3-2.1 0.8-0.2-0.5 2.5-0.9 0.3 0.7-1.8 1.2 2.2-0.2 0.3 0.7z"/>
						<path id="&lt;Path&gt;" class="s1" d="m56.4 23l-0.4-1.3-0.5 0.1 0.3 1.3-0.4 0.1-0.4-1.3-0.6 0.2 0.3 1.4-0.4 0.1-0.5-1.9 2.6-0.7 0.4 1.9z"/>
						<path id="&lt;Path&gt;" class="s1" d="m57.2 25.2l0.1 0.6-2.6 0.3-0.1-0.5 1.7-1.4-1.9 0.3v-0.5l2.6-0.4 0.1 0.6-1.7 1.3z"/>
						<path id="&lt;Path&gt;" class="s1" d="m54.8 27.7l-0.1-0.5 2.2-0.1v-0.8l0.5-0.1 0.1 2.2h-0.5v-0.8z"/>
					</g>
					<g id="&lt;Group&gt;">
						<path id="&lt;Compound Path&gt;" fill-rule="evenodd" class="s1" d="m6.8 43l-0.4-0.4 2.6-0.7 0.4 0.5-1.7 2.1-0.3-0.4 0.4-0.5-0.5-0.7zm0.9-0.3l0.4 0.6 0.6-0.8v-0.1z"/>
						<path id="&lt;Path&gt;" class="s1" d="m8.4 45.3l-0.4-0.4 2-1.5 1.1 1.4-0.3 0.2-0.8-1-0.5 0.4 0.7 0.9-0.3 0.2-0.7-0.8z"/>
						<path id="&lt;Compound Path&gt;" fill-rule="evenodd" class="s1" d="m11.3 45l0.8 0.9c0.5 0.4 0.2 0.9 0.1 1-0.2 0.2-0.5 0.3-0.7 0.2 0.1 0.2 0.1 0.3-0.3 0.6-0.2 0.3-0.3 0.3-0.2 0.4l-0.1 0.1-0.4-0.4c0.1-0.1 0.1-0.2 0.3-0.4 0.3-0.3 0.4-0.4 0.1-0.6l-0.4-0.4-0.7 0.6-0.3-0.3zm-0.1 1.5q0.3 0.3 0.6 0.1c0.1-0.1 0.2-0.3 0-0.5l-0.5-0.5-0.5 0.5z"/>
						<path id="&lt;Path&gt;" class="s1" d="m11.7 48.9l-0.4-0.4 1.7-1.8 0.3 0.3z"/>
						<path id="&lt;Path&gt;" class="s1" d="m14.4 49c0-0.2 0.2-0.5-0.2-0.7-0.2-0.2-0.6-0.3-1 0.3-0.3 0.3-0.4 0.7-0.1 1q0.4 0.3 0.8 0l0.4 0.3c-0.5 0.4-1 0.5-1.5 0.1-0.5-0.5-0.6-1.1 0-1.8 0.5-0.6 1.2-0.7 1.7-0.3 0.6 0.5 0.5 1.1 0.3 1.4z"/>
						<path id="&lt;Compound Path&gt;" fill-rule="evenodd" class="s1" d="m14.5 51.1l-0.5-0.3 2.1-1.6 0.5 0.3-0.6 2.6-0.5-0.3 0.2-0.5-0.8-0.5zm0.8-0.6l0.5 0.3 0.3-1z"/>
						<path id="&lt;Path&gt;" class="s1" d="m18.9 50.8l0.5 0.3-1.2 2.2-0.5-0.3v-2l-0.9 1.6-0.4-0.3 1.2-2.2 0.5 0.3v2z"/>
						<path id="&lt;Compound Path&gt;" fill-rule="evenodd" class="s1" d="m20.6 51.6l1 0.4c0.8 0.3 0.7 1 0.6 1.4-0.2 0.5-0.7 1.2-1.4 0.9l-1-0.3zm-0.3 2.1l0.5 0.1c0.4 0.2 0.7-0.2 0.8-0.6 0.3-0.6 0-0.8-0.2-0.9l-0.5-0.2z"/>
						<path id="&lt;Path&gt;" class="s1" d="m24.6 53.3l-1.3-0.3-0.2 0.5 1.2 0.3-0.1 0.4-1.2-0.3-0.1 0.6 1.3 0.4-0.1 0.4-1.8-0.5 0.6-2.4 1.8 0.5z"/>
						<path id="&lt;Path&gt;" class="s1" d="m26.5 53.2l0.5 0.1-1.2 2.3-0.5-0.1-0.4-2.6 0.5 0.1 0.2 2h0.1z"/>
						<path id="&lt;Path&gt;" class="s1" d="m29.1 53.9l-1.3-0.1-0.1 0.5 1.2 0.1v0.4l-1.2-0.1-0.1 0.7 1.4 0.1v0.4l-1.9-0.1 0.2-2.5 1.8 0.1z"/>
						<path id="&lt;Path&gt;" class="s1" d="m30 55.5l1.3-0.1v0.5h-1.8v-2.5h0.5z"/>
						<path id="&lt;Compound Path&gt;" fill-rule="evenodd" class="s1" d="m32.6 53.2c0.3 0 1.2 0 1.3 1.2 0.2 1.2-0.7 1.4-1 1.4-0.3 0.1-1.2 0-1.3-1.2-0.2-1.1 0.7-1.4 1-1.4zm0.2 2.2c0.3-0.1 0.7-0.3 0.6-1 0-0.7-0.5-0.8-0.7-0.8-0.3 0.1-0.7 0.3-0.6 1 0.1 0.7 0.5 0.8 0.7 0.8z"/>
						<path id="&lt;Compound Path&gt;" fill-rule="evenodd" class="s1" d="m35.2 55.4l-0.6 0.1-0.5-2.4 1.2-0.2c0.4-0.1 0.8 0.1 0.9 0.6 0 0.2 0 0.8-0.6 0.9l-0.6 0.1zm0.2-1.4c0.4 0 0.3-0.3 0.3-0.4-0.1-0.3-0.2-0.3-0.5-0.3l-0.4 0.1 0.1 0.7z"/>
						<path id="&lt;Path&gt;" class="s1" d="m39.3 54.3l-0.4 0.1-0.6-2 0.1 2.2-0.5 0.1-1-1.8 0.6 2-0.5 0.1-0.7-2.4 0.7-0.2 1 1.7-0.1-2 0.7-0.2z"/>
						<path id="&lt;Path&gt;" class="s1" d="m40.8 51.4l-1.2 0.6 0.2 0.4 1.1-0.4 0.2 0.4-1.1 0.4 0.3 0.6 1.2-0.5 0.2 0.4-1.7 0.7-1-2.3 1.7-0.7z"/>
						<path id="&lt;Path&gt;" class="s1" d="m42.4 50.1l0.4-0.2 1.2 2.2-0.5 0.2-1.7-1 0.8 1.5-0.4 0.2-1.2-2.1 0.5-0.3 1.7 1z"/>
						<path id="&lt;Path&gt;" class="s1" d="m45.4 51.1l-0.4 0.3-1.2-1.7-0.6 0.4-0.2-0.3 1.6-1.2 0.3 0.4-0.6 0.4z"/>
						<path id="&lt;Compound Path&gt;" fill-rule="evenodd" class="s1" d="m45.6 47.9l0.9-0.8c0.4-0.4 0.8-0.2 1 0 0.2 0.3 0.1 0.5 0.1 0.6 0.3-0.1 0.5 0 0.7 0.2q0.2 0.2 0.1 0.5c0 0.2 0 0.4-0.4 0.7l-0.8 0.7zm1.7 1.2l0.5-0.4q0.3-0.2 0.1-0.5c-0.2-0.2-0.4-0.1-0.5 0l-0.5 0.4zm-0.7-0.8l0.4-0.4c0.2-0.1 0.3-0.3 0.1-0.4-0.1-0.2-0.2-0.1-0.4 0l-0.5 0.4z"/>
						<path id="&lt;Compound Path&gt;" fill-rule="evenodd" class="s1" d="m49.4 47.8l-0.3 0.4-1.2-2.4 0.4-0.4 2.4 1.1-0.4 0.4-0.5-0.3-0.6 0.7zm-0.5-0.9l0.4-0.4-0.9-0.5z"/>
						<path id="&lt;Path&gt;" class="s1" d="m50 43.3l0.2-0.3 2 1.5-0.3 0.4-2-0.3 1.4 1.1-0.3 0.4-2-1.5 0.3-0.5 2 0.3z"/>
						<path id="&lt;Path&gt;" class="s1" d="m52.9 43.5l-0.3 0.4-2.1-1.3 0.3-0.4 0.8 0.5-0.3-1.4 0.4-0.5 0.3 1.4 1.8-0.1-0.4 0.5-1.3 0.1 0.1 0.3z"/>
					</g>
				</g>
			</g>
		</g>
	</g>
</svg>