<svg width="24" height="27" viewBox="0 0 24 27" fill="none" xmlns="http://www.w3.org/2000/svg">
<path d="M2.76215 17.7106L0 20.5647L5.74428 26.5001L8.50642 23.646L2.76215 17.7106ZM6.25972 24.8547C5.89835 24.8547 5.60539 24.552 5.60539 24.1786C5.60534 23.8052 5.8983 23.5025 6.25972 23.5025C6.62109 23.5025 6.91405 23.8052 6.91405 24.1786C6.91405 24.552 6.62109 24.8547 6.25972 24.8547Z" fill="#7C86FF"/>
<path d="M22.6569 11.2379C21.9693 10.5762 20.8867 10.6271 20.2223 11.3136L16.3781 15.2857L16.3704 15.2868C16.5299 15.0306 16.6273 14.7301 16.6385 14.4054C16.6735 13.3867 15.8847 12.5494 14.9066 12.5494H10.7593C9.57611 12.5494 8.44143 13.0351 7.60482 13.8996L4.39038 17.221L8.22883 21.1871L8.91141 20.4818H14.4031C15.5862 20.4818 16.7209 19.9962 17.5576 19.1317L22.7024 13.8157C23.394 13.101 23.3789 11.9326 22.6569 11.2379Z" fill="#7C86FF"/>
<path d="M18.3133 6.43425C18.1884 5.90516 17.9861 5.4074 17.7196 4.95443L18.986 3.33593L17.5713 1.87414L16.0049 3.18267C15.5665 2.90729 15.0848 2.69832 14.5727 2.56923L14.3607 0.5H12.3599L12.1479 2.56923C11.6358 2.69832 11.1541 2.90729 10.7157 3.18267L9.14932 1.87414L7.73455 3.33598L9.00094 4.95448C8.73443 5.40745 8.53219 5.90521 8.40726 6.4343L6.40466 6.65342V8.72077L8.40726 8.93989C8.53219 9.46893 8.73443 9.96669 9.00094 10.4197L7.9588 11.7516C8.13018 11.6569 8.30661 11.5708 8.48781 11.4932C9.21158 11.1835 9.9758 11.0264 10.7592 11.0264H14.9066C15.7849 11.0264 16.6046 11.3861 17.2146 12.0392C17.2508 12.0781 17.2861 12.1177 17.3203 12.158L18.2932 11.1527L17.7196 10.4197C17.9861 9.96669 18.1884 9.46893 18.3133 8.93984L20.3159 8.72072V6.65337L18.3133 6.43425ZM13.3603 10.1089C12.0658 10.1089 11.0164 9.02465 11.0164 7.68707C11.0164 6.34949 12.0658 5.26521 13.3603 5.26521C14.6547 5.26521 15.7042 6.34949 15.7042 7.68707C15.7042 9.02465 14.6548 10.1089 13.3603 10.1089Z" fill="#7C86FF"/>
</svg>
