<svg width="28" height="25" viewBox="0 0 28 25" fill="none" xmlns="http://www.w3.org/2000/svg">
<path d="M10.7016 9.53909C10.7776 9.75687 10.9354 9.94791 11.1513 10.0834C11.3672 10.2189 11.6295 10.2916 11.8986 10.2904C11.9681 10.2741 16.5405 10.327 16.4193 10.2573C16.6292 10.2136 16.8218 10.1243 16.9781 9.99828C17.1343 9.87227 17.2488 9.71397 17.31 9.53909C16.3734 9.53922 11.563 9.53898 10.7016 9.53909Z" fill="#7C86FF"/>
<path d="M12.9812 17.5176L12.3649 18.0585C12.319 18.0983 12.2611 18.1267 12.1974 18.1405C12.1337 18.1544 12.0667 18.1532 12.0038 18.137C11.9409 18.1209 11.8844 18.0904 11.8407 18.049C11.7969 18.0076 11.7675 17.9568 11.7557 17.9022C11.6832 17.536 11.2067 15.2177 11.1608 14.9782C11.1339 14.9751 8.97617 15.6001 8.87366 15.6213C8.42531 15.7461 8.01572 15.9539 7.67485 16.2295C7.33399 16.5051 7.07049 16.8415 6.90362 17.214L5.43232 20.5137C5.41238 20.559 5.40566 20.6077 5.41273 20.6556C5.41981 20.7036 5.44047 20.7494 5.47297 20.7892C5.50546 20.829 5.54884 20.8616 5.59944 20.8843C5.65003 20.9069 5.70635 20.919 5.76363 20.9194H12.3542C12.5299 20.5294 13.4011 18.589 13.5939 18.1577L12.9812 17.5176Z" fill="#7C86FF"/>
<path d="M22.5675 20.5143L21.0962 17.2147C20.9293 16.8421 20.6658 16.5057 20.3249 16.2301C19.9841 15.9545 19.5745 15.7467 19.1261 15.6219C18.966 15.5758 16.9238 15.0034 16.839 14.9788C16.8106 15.1304 16.2655 17.7887 16.2655 17.7887C16.2541 17.8408 16.2266 17.8895 16.1858 17.9298C16.145 17.9701 16.0923 18.0007 16.0331 18.0183C15.9738 18.036 15.9101 18.0402 15.8483 18.0305C15.7866 18.0208 15.7289 17.9975 15.6812 17.963L15.04 17.4941L14.4059 18.1583C14.6039 18.6 15.4638 20.5183 15.6456 20.92H22.2361C22.2934 20.9196 22.3498 20.9076 22.4003 20.8849C22.4509 20.8622 22.4943 20.8296 22.5268 20.7898C22.5593 20.75 22.58 20.7042 22.5871 20.6563C22.5941 20.6083 22.5874 20.5596 22.5675 20.5143Z" fill="#7C86FF"/>
<path d="M12.0265 15.6848L12.34 17.2144C12.3804 17.1826 13.4998 16.3005 13.5049 16.2978L13.2341 16.0183C12.8143 15.9578 12.4074 15.8454 12.0265 15.6848Z" fill="#7C86FF"/>
<path d="M15.9701 15.7149C15.5842 15.8699 15.1739 15.9772 14.7517 16.0335L14.4952 16.2949C14.7738 16.4993 15.4002 16.9618 15.6744 17.1604L15.9701 15.7149Z" fill="#7C86FF"/>
<path d="M16.1127 10.8913H11.8983C11.5628 10.8916 11.2329 10.819 10.9402 10.6806C10.6476 10.5422 10.4022 10.3426 10.2275 10.1009C10.2275 10.1009 10.1992 12.1496 10.2488 12.5652C10.4827 15.1098 14.1809 16.3883 16.4654 14.7379C16.8959 14.4367 17.2426 14.0593 17.4809 13.6323C17.7192 13.2054 17.8431 12.7395 17.844 12.2677C17.843 12.0844 17.844 10.0138 17.844 10.0138C17.6769 10.2788 17.4275 10.5004 17.1225 10.655C16.8175 10.8096 16.4685 10.8912 16.1127 10.8913Z" fill="#7C86FF"/>
<path d="M14.5023 17.1002L14 16.7305L13.4977 17.1002L14 17.6231L14.5023 17.1002Z" fill="#7C86FF"/>
<path d="M13.1164 20.9196H14.8834C14.7073 20.5295 14.1828 19.3615 13.9999 18.9542C13.8144 19.3675 13.2951 20.524 13.1164 20.9196Z" fill="#7C86FF"/>
<path d="M9.51489 12.4661C9.51489 12.4661 9.51467 10.6539 9.51489 10.0109C9.22641 10.1103 8.97969 10.2801 8.80641 10.4986C8.63312 10.717 8.54117 10.9742 8.54234 11.237C8.54294 11.4999 8.63556 11.7568 8.80858 11.9755C8.9816 12.1941 9.22731 12.3648 9.51489 12.4661Z" fill="#7C86FF"/>
<path d="M18.8877 10.1524C18.7845 10.0918 18.6733 10.0414 18.5564 10.0021C18.5564 10.0021 18.5557 12.3396 18.5564 12.4754C18.818 12.3848 19.0461 12.2371 19.2173 12.0473C19.3885 11.8575 19.4966 11.6327 19.5304 11.3959C19.5642 11.1591 19.5224 10.9191 19.4094 10.7005C19.2965 10.4819 19.1164 10.2927 18.8877 10.1524Z" fill="#7C86FF"/>
<path d="M10.2664 8.44257C10.2661 8.56377 10.2667 8.82067 10.2664 8.93842C10.3054 8.93866 17.678 8.93823 17.7191 8.93842H17.744C17.7501 8.82358 17.7399 8.56463 17.7441 8.44257H10.2664Z" fill="#7C86FF"/>
<path d="M9.56874 8.96813C9.55287 8.79317 9.54811 8.61762 9.55449 8.44223C9.54189 8.26932 9.60899 8.09899 9.74176 7.96683C9.87454 7.83466 10.0627 7.75089 10.267 7.73301H17.7446C17.949 7.75062 18.1374 7.83432 18.2702 7.96654C18.403 8.09877 18.47 8.26925 18.4571 8.44223C18.4634 8.61562 18.4586 8.78917 18.4428 8.96212C21.2279 7.36947 17.7879 3.86168 13.4947 4.09071C12.5642 4.14985 11.6636 4.39456 10.8671 4.8047C10.0706 5.21483 9.40093 5.77867 8.91325 6.44981C8.74928 6.64853 8.6358 6.8737 8.57991 7.11119C8.52403 7.34867 8.52696 7.59334 8.58851 7.82982C8.65007 8.06631 8.76892 8.2895 8.93761 8.48539C9.10629 8.68128 9.32117 8.84564 9.56874 8.96813Z" fill="#7C86FF"/>
</svg>
