<svg width="28" height="20" viewBox="0 0 28 20" fill="none" xmlns="http://www.w3.org/2000/svg">
<path fill-rule="evenodd" clip-rule="evenodd" d="M11.0703 1.93387C11.1597 1.9338 11.2471 1.96025 11.3215 2.00988C11.3959 2.05952 11.4539 2.1301 11.4882 2.21269C11.5225 2.29529 11.5315 2.3862 11.5141 2.47392C11.4967 2.56163 11.4536 2.64222 11.3904 2.70548C11.3272 2.76873 11.2467 2.81182 11.159 2.8293C11.0712 2.84677 10.9803 2.83784 10.8977 2.80363C10.8151 2.76942 10.7445 2.71148 10.6948 2.63713C10.6451 2.56278 10.6186 2.47536 10.6186 2.38594C10.6188 2.26619 10.6665 2.15142 10.7511 2.06671C10.8358 1.982 10.9505 1.93424 11.0703 1.93387ZM11.0703 3.49098C11.2889 3.49112 11.5026 3.42644 11.6844 3.3051C11.8663 3.18376 12.008 3.01121 12.0918 2.8093C12.1755 2.60738 12.1975 2.38516 12.155 2.17075C12.1124 1.95634 12.0072 1.75936 11.8527 1.60474C11.6982 1.45012 11.5012 1.3448 11.2869 1.3021C11.0725 1.25941 10.8502 1.28125 10.6483 1.36488C10.4463 1.4485 10.2737 1.59015 10.1522 1.7719C10.0308 1.95365 9.96593 2.16734 9.96594 2.38594C9.96631 2.67878 10.0828 2.95952 10.2898 3.16666C10.4968 3.37379 10.7774 3.49042 11.0703 3.49098ZM8.92918 3.04176L9.272 3.12824L9.09028 3.43523C9.0533 3.49742 9.03814 3.57016 9.04718 3.64193C9.05622 3.71371 9.08896 3.78042 9.1402 3.83148L9.62192 4.31426C9.67318 4.36553 9.74004 4.39829 9.81197 4.40738C9.8839 4.41648 9.95681 4.40139 10.0192 4.36449L10.3235 4.18309L10.4113 4.5291C10.4293 4.59914 10.4702 4.66112 10.5276 4.70514C10.585 4.74916 10.6554 4.77267 10.7277 4.77191H11.4089C11.4812 4.77264 11.5516 4.74911 11.6089 4.70509C11.6662 4.66107 11.7071 4.5991 11.725 4.5291L11.8125 4.18309L12.1185 4.36727C12.1809 4.40412 12.2537 4.41917 12.3256 4.41007C12.3975 4.40097 12.4643 4.36823 12.5156 4.31699L12.9973 3.83426C13.0485 3.78316 13.0812 3.71642 13.0902 3.64463C13.0992 3.57284 13.0839 3.5001 13.0468 3.43797L12.8663 3.13379L13.2111 3.04449C13.2817 3.02744 13.3444 2.98698 13.389 2.92972C13.4336 2.87246 13.4575 2.80176 13.4567 2.72918V2.04828C13.4563 1.97567 13.432 1.90522 13.3876 1.84775C13.3432 1.79028 13.2812 1.74897 13.2111 1.73016L12.8683 1.64363L13.05 1.33668C13.087 1.27449 13.1021 1.20175 13.0931 1.12997C13.084 1.0582 13.0513 0.991497 13 0.94043L12.5184 0.46043C12.4671 0.409163 12.4003 0.376401 12.3283 0.3673C12.2564 0.358199 12.1835 0.373275 12.1211 0.410156L11.8168 0.591523L11.729 0.245508C11.7107 0.175502 11.6698 0.113497 11.6126 0.0691083C11.5555 0.0247198 11.4853 0.000427996 11.4129 0L10.7316 0C10.6592 0.000410803 10.589 0.0247049 10.5318 0.0691113C10.4747 0.113518 10.4338 0.175552 10.4155 0.245586L10.3281 0.588828L10.0221 0.407422C9.95973 0.370531 9.88684 0.355445 9.81494 0.36454C9.74303 0.373635 9.6762 0.406394 9.62496 0.457656L9.14305 0.9375C9.09181 0.988578 9.05908 1.0553 9.05006 1.12709C9.04104 1.19887 9.05623 1.27162 9.09325 1.33379L9.27383 1.64074L8.92907 1.72723C8.85873 1.74567 8.79648 1.78689 8.75203 1.84444C8.70758 1.90199 8.68343 1.97264 8.68336 2.04535V2.72348C8.68256 2.79641 8.70638 2.86748 8.75097 2.92521C8.79555 2.98294 8.8583 3.02394 8.92907 3.0416L8.92918 3.04176ZM9.152 7.32812C9.00114 7.3283 8.85371 7.37317 8.72834 7.45708C8.60297 7.54099 8.50527 7.66017 8.4476 7.79957C8.38992 7.93897 8.37485 8.09233 8.40428 8.24029C8.43372 8.38825 8.50634 8.52417 8.61298 8.63088C8.71962 8.73759 8.85549 8.81031 9.00343 8.83984C9.15137 8.86937 9.30475 8.8544 9.44419 8.79682C9.58362 8.73924 9.70287 8.64162 9.78686 8.51631C9.87086 8.39099 9.91583 8.24359 9.9161 8.09273C9.91622 7.99233 9.89654 7.89289 9.85819 7.8001C9.81984 7.70731 9.76357 7.623 9.6926 7.55198C9.62163 7.48096 9.53735 7.42463 9.44459 7.38622C9.35182 7.34781 9.2524 7.32807 9.152 7.32812ZM9.152 9.50754C8.87186 9.50743 8.59805 9.42424 8.36519 9.2685C8.13234 9.11276 7.95091 8.89145 7.84384 8.63258C7.73678 8.37371 7.70889 8.08891 7.76371 7.81419C7.81853 7.53947 7.9536 7.28718 8.15182 7.08923C8.35004 6.89128 8.60252 6.75656 8.87732 6.70212C9.15211 6.64768 9.43688 6.67595 9.6956 6.78338C9.95433 6.8908 10.1754 7.07254 10.3308 7.3056C10.4862 7.53867 10.569 7.8126 10.5688 8.09273C10.5678 8.46801 10.4182 8.82761 10.1526 9.09278C9.88707 9.35796 9.52727 9.5071 9.152 9.50754ZM6.18278 8.88254C6.11263 8.86473 6.0504 8.82407 6.00593 8.76698C5.96145 8.70988 5.93725 8.6396 5.93715 8.56723V7.6102C5.93692 7.53806 5.96105 7.46795 6.00563 7.41124C6.05021 7.35452 6.11263 7.31452 6.18278 7.2977L6.7386 7.15234C6.75309 7.11606 6.76844 7.07699 6.78469 7.04348L6.49332 6.54945C6.45634 6.48728 6.44116 6.41453 6.45021 6.34275C6.45925 6.27097 6.49199 6.20426 6.54325 6.1532L7.21871 5.47789C7.26997 5.42661 7.33683 5.39384 7.40877 5.38475C7.4807 5.37565 7.55361 5.39075 7.61602 5.42766L8.10621 5.72062C8.14349 5.70234 8.1819 5.68649 8.22121 5.67316L8.36141 5.12344C8.37875 5.05289 8.41939 4.99026 8.47676 4.94569C8.53412 4.90111 8.60486 4.87721 8.6775 4.87785H9.63266C9.70532 4.87719 9.77608 4.90109 9.83347 4.94566C9.89086 4.99023 9.93152 5.05287 9.94887 5.12344L10.0889 5.67316C10.1293 5.68646 10.1688 5.70231 10.2071 5.72062L10.6925 5.43039C10.755 5.39326 10.8283 5.3783 10.9004 5.38792C10.9725 5.39753 11.0392 5.43117 11.0898 5.4834L11.7651 6.15594C11.8163 6.2076 11.849 6.27478 11.858 6.34698C11.867 6.41918 11.8519 6.49233 11.8149 6.555L11.5256 7.04328C11.543 7.07957 11.5593 7.12141 11.5747 7.16047L12.1213 7.30277C12.1914 7.3196 12.2539 7.3596 12.2985 7.41631C12.3431 7.47302 12.3672 7.54312 12.3671 7.61527V8.5723C12.3669 8.64469 12.3427 8.71497 12.2982 8.77206C12.2537 8.82915 12.1914 8.8698 12.1213 8.88762L11.5702 9.02996C11.5548 9.06621 11.5387 9.10527 11.5217 9.14434L11.8108 9.63262C11.8477 9.6948 11.8629 9.76753 11.8539 9.8393C11.8448 9.91106 11.8121 9.97777 11.7609 10.0289L11.0855 10.7046C11.0342 10.7558 10.9673 10.7886 10.8954 10.7977C10.8234 10.8068 10.7505 10.7917 10.6881 10.7548L10.1959 10.4646C10.1588 10.4786 10.1211 10.4925 10.0833 10.5064L9.9427 11.0618C9.92476 11.1318 9.88387 11.1937 9.82656 11.2377C9.76926 11.2817 9.69886 11.3053 9.62661 11.3046H8.67149C8.59922 11.3053 8.5288 11.2818 8.47149 11.2378C8.41417 11.1937 8.37328 11.1318 8.35535 11.0618L8.21313 10.5037C8.17572 10.4903 8.13925 10.4745 8.10399 10.4562L7.61153 10.7492C7.54936 10.7868 7.47632 10.8023 7.40423 10.7932C7.33214 10.7842 7.26522 10.751 7.2143 10.6992L6.53903 10.0265C6.48778 9.97483 6.45509 9.90765 6.44608 9.83545C6.43707 9.76324 6.45224 9.69009 6.48922 9.62742L6.78297 9.1307C6.76735 9.09723 6.75215 9.05816 6.73797 9.02469L6.18278 8.88234V8.88254ZM17.5578 4.78043C17.2954 4.78018 17.0389 4.85777 16.8207 5.00339C16.6025 5.149 16.4324 5.35609 16.332 5.59844C16.2315 5.84078 16.2053 6.10748 16.2565 6.36476C16.3077 6.62205 16.4341 6.85834 16.6197 7.04374C16.8053 7.22913 17.0418 7.35528 17.2991 7.40622C17.5565 7.45715 17.8231 7.43058 18.0654 7.32987C18.3076 7.22916 18.5145 7.05884 18.6599 6.84047C18.8052 6.62209 18.8825 6.3655 18.882 6.10316C18.8812 5.75233 18.7414 5.41611 18.4932 5.16817C18.245 4.92023 17.9086 4.7808 17.5578 4.78043ZM17.5578 8.08164C17.1672 8.08147 16.7854 7.96552 16.4607 7.74845C16.1359 7.53137 15.8828 7.22292 15.7333 6.86205C15.5839 6.50118 15.5447 6.10411 15.6208 5.72099C15.6969 5.33787 15.8849 4.98591 16.1609 4.70958C16.437 4.43325 16.7888 4.24495 17.1718 4.16847C17.5549 4.092 17.952 4.13078 18.313 4.27991C18.674 4.42905 18.9827 4.68185 19.2001 5.00637C19.4175 5.33089 19.5338 5.71256 19.5343 6.10316C19.534 6.62746 19.3257 7.13021 18.9552 7.50112C18.5846 7.87203 18.0821 8.0808 17.5578 8.08164ZM14.1636 4.50676L13.6778 3.68914C13.6408 3.62648 13.6256 3.55332 13.6346 3.48111C13.6436 3.4089 13.6763 3.34172 13.7276 3.29008L14.75 2.26871C14.8009 2.21685 14.8678 2.18368 14.9399 2.17457C15.0119 2.16546 15.085 2.18094 15.1472 2.21852L15.9647 2.70406C16.0702 2.6528 16.1787 2.60807 16.2896 2.57012L16.5235 1.65215C16.5413 1.58185 16.582 1.51951 16.6393 1.47503C16.6965 1.43054 16.767 1.40646 16.8395 1.4066H18.2848C18.3574 1.40643 18.4279 1.4305 18.4853 1.47499C18.5426 1.51947 18.5834 1.58182 18.6013 1.65215L18.835 2.57012C18.9467 2.61199 19.0567 2.65383 19.1644 2.70684L19.9747 2.22688C20.0368 2.18953 20.1096 2.17392 20.1816 2.18251C20.2535 2.1911 20.3206 2.22339 20.3722 2.2743L21.3941 3.29566C21.4453 3.34733 21.478 3.41449 21.487 3.48668C21.4961 3.55886 21.481 3.632 21.4441 3.69469L20.9613 4.50676C21.0121 4.61559 21.0575 4.72723 21.0977 4.83605L22.0102 5.07043C22.0809 5.08809 22.1436 5.1291 22.1882 5.18682C22.2328 5.24453 22.2566 5.31559 22.2558 5.38852V6.83383C22.2561 6.90597 22.2319 6.97608 22.1873 7.03279C22.1427 7.08951 22.0803 7.12952 22.0102 7.14633L21.0914 7.38352C21.0511 7.49512 21.0055 7.60117 20.955 7.71L21.4375 8.52238C21.4745 8.58454 21.4897 8.65729 21.4807 8.72909C21.4717 8.80089 21.4389 8.8676 21.3876 8.91863L20.3655 9.94277C20.314 9.99368 20.2469 10.026 20.175 10.0346C20.103 10.0431 20.0303 10.0275 19.9682 9.9902L19.1484 9.50465C19.0435 9.55383 18.9361 9.59762 18.8267 9.63582L18.592 10.5567C18.5743 10.6273 18.5336 10.6901 18.4763 10.735C18.4191 10.78 18.3485 10.8046 18.2756 10.805H16.8303C16.7575 10.8046 16.6869 10.78 16.6296 10.735C16.5723 10.6901 16.5316 10.6273 16.5139 10.5567L16.2773 9.63023C16.1704 9.58836 16.0647 9.54648 15.9613 9.49629L15.1404 9.98457C15.0781 10.0212 15.0055 10.0365 14.9337 10.0279C14.862 10.0193 14.795 9.98744 14.7431 9.93715L13.7211 8.91301C13.6698 8.86138 13.6371 8.79419 13.628 8.72198C13.619 8.64976 13.6342 8.5766 13.6713 8.51395L14.1606 7.69363C14.1123 7.58759 14.0688 7.48154 14.03 7.37547L13.1048 7.13828C13.0343 7.12122 12.9716 7.08075 12.927 7.02349C12.8824 6.96623 12.8585 6.89555 12.8593 6.82297V5.37766C12.8589 5.30518 12.883 5.2347 12.9275 5.17751C12.9721 5.12033 13.0345 5.07976 13.1048 5.0623L14.031 4.82512C14.07 4.71629 14.1142 4.61025 14.1634 4.50699L14.1636 4.50676ZM23.5398 11.2852C23.6559 11.1711 23.7228 11.0162 23.7262 10.8535C23.7296 10.6908 23.6693 10.5333 23.558 10.4145L23.5147 10.3671C23.4095 10.2518 23.265 10.1801 23.1096 10.1662C22.9542 10.1522 22.7992 10.197 22.6752 10.2917L18.6933 13.2804C18.8579 13.5543 18.9099 13.8814 18.8385 14.1929L18.832 14.218C18.7589 14.5353 18.5645 14.8114 18.2904 14.9872C18.0163 15.163 17.6843 15.2244 17.3654 15.1584L13.414 14.3211C13.3297 14.3028 13.2561 14.2518 13.2092 14.1793C13.1624 14.1068 13.1461 14.0188 13.164 13.9344C13.1819 13.8499 13.2324 13.776 13.3046 13.7287C13.3768 13.6815 13.4648 13.6647 13.5493 13.6821L17.5007 14.5193C17.6515 14.5506 17.8086 14.5218 17.9384 14.4389C18.0682 14.356 18.1605 14.2256 18.1955 14.0756L18.202 14.0477C18.2191 13.9723 18.2211 13.8944 18.208 13.8182C18.1949 13.7421 18.167 13.6693 18.1257 13.604C18.0852 13.5384 18.0318 13.4816 17.9689 13.437C17.9059 13.3924 17.8347 13.3609 17.7593 13.3445L12.2125 12.0831C11.4719 11.9129 10.781 12.0496 10.1589 12.485L7.45746 14.3798L9.56793 17.5555L10.9843 16.4782C11.018 16.451 11.057 16.4312 11.0989 16.4202C11.1408 16.4091 11.1845 16.407 11.2272 16.4141L16.9489 17.2094C17.1212 17.2358 17.2973 17.2208 17.4626 17.1654C17.6279 17.1101 17.7775 17.0161 17.8991 16.8912L23.5398 11.2852ZM7.15782 20L4.27364 15.655L6.52852 14.1593L9.41274 18.5014L7.15782 20Z" fill="#7C86FF"/>
</svg>
