<svg width="51" height="60" viewBox="0 0 51 60" fill="none" xmlns="http://www.w3.org/2000/svg">
<path d="M26.3622 24.9941L25.2407 24.2302V24.9941H26.3622Z" fill="#7C86FF"/>
<path d="M35.635 24.9943C35.6601 24.9974 35.685 25.003 35.7092 25.0109C35.8087 24.99 35.9111 25.0061 36.0027 25.0569L36.5277 25.3697L35.3525 19.1149C35.3233 18.9596 35.2436 18.8241 35.1304 18.7393C35.0174 18.6542 34.8806 18.6266 34.7503 18.6621L20.8682 22.3779L21.3625 24.9943H24.2376V23.1998C24.2372 22.9859 24.3328 22.7881 24.488 22.6807C24.6434 22.5737 24.8349 22.5737 24.9903 22.6805L28.0009 24.7321L28.7898 22.3792C28.847 22.2085 28.9667 22.0789 29.1146 22.0273C29.2625 21.9757 29.422 22.0079 29.5474 22.1147L32.9289 24.9943H35.635ZM31.7644 22.0035C31.7644 21.0125 32.4382 20.209 33.2695 20.209C34.1009 20.209 34.7749 21.0125 34.7749 22.0035C34.7749 22.9946 34.1009 23.7978 33.2695 23.7978C32.4382 23.7978 31.7644 22.9946 31.7644 22.0035Z" fill="#7C86FF"/>
<path d="M20.158 21.3451L22.0512 20.8378L18.029 16.0402C17.833 15.8066 17.5155 15.8066 17.3196 16.0402L11.7538 22.6747C11.5578 22.9083 11.5578 23.287 11.7538 23.5206L12.9897 24.9939H20.3336L19.7787 22.0568C19.7487 21.9017 19.7719 21.7386 19.8431 21.6039C19.9142 21.4693 20.0276 21.3739 20.158 21.3392V21.3451ZM13.7855 23.7974C13.5825 23.7974 13.3996 23.6517 13.322 23.4284C13.2444 23.2048 13.2872 22.9474 13.4307 22.7764L17.445 17.9914C17.6418 17.7647 17.9548 17.7677 18.1484 17.9985C18.3419 18.2293 18.3445 18.6024 18.1544 18.837L14.1403 23.6223C14.0462 23.7345 13.9186 23.7974 13.7855 23.7974ZM19.6598 20.6315L17.1508 23.6223C16.954 23.849 16.641 23.8457 16.4475 23.6149C16.2539 23.3842 16.2513 23.011 16.4415 22.7764L18.9502 19.7856C19.0762 19.6303 19.2627 19.5679 19.4383 19.6226C19.6137 19.6773 19.7507 19.8406 19.7965 20.0499C19.8424 20.2589 19.7901 20.4813 19.6598 20.6315Z" fill="#7C86FF"/>
<path d="M28.9932 24.994H31.2024L29.4843 23.5309L28.9932 24.994Z" fill="#7C86FF"/>
<path d="M25.241 35.1622C25.241 36.1532 24.567 36.9567 23.7356 36.9567C22.9043 36.9567 22.2305 36.1532 22.2305 35.1622C22.2305 34.1711 22.9043 33.3679 23.7356 33.3679C24.567 33.3679 25.241 34.1711 25.241 35.1622Z" fill="#7C86FF"/>
<path d="M39.25 28.33L36.2268 26.5283L37.7275 42.6456L39.25 28.33Z" fill="#7C86FF"/>
<path d="M19.7215 34.5648C19.9987 34.5648 20.2232 34.8326 20.2232 35.1628C20.2232 35.4933 19.9987 35.7611 19.7215 35.7611H12.1412L12.8712 43.6029C12.8995 43.9057 13.1138 44.135 13.3696 44.1352H36.2956C36.4384 44.1352 36.5743 44.0629 36.6695 43.9361C36.7647 43.8094 36.8101 43.6402 36.7945 43.4713L36.0793 35.7611H27.7499C27.4727 35.7611 27.2481 35.4933 27.2481 35.1628C27.2481 34.8326 27.4727 34.5648 27.7499 34.5648H35.9655L35.377 28.2357C35.3448 28.1577 35.3277 28.0721 35.3268 27.9849C35.3298 27.9512 35.3356 27.9177 35.3438 27.8853L35.1858 26.1907H11.25L12.0297 34.5648H19.7215ZM23.7356 32.172C25.1214 32.172 26.2445 33.5111 26.2445 35.1628C26.2445 36.8147 25.1214 38.1536 23.7356 38.1536C22.3501 38.1536 21.2269 36.8147 21.2269 35.1628C21.2284 33.5119 22.3507 32.1741 23.7356 32.172Z" fill="#7C86FF"/>
<path d="M33.7713 22.0032C33.7713 22.3334 33.5467 22.6012 33.2695 22.6012C32.9925 22.6012 32.7678 22.3334 32.7678 22.0032C32.7678 21.6727 32.9925 21.4049 33.2695 21.4049C33.5467 21.4049 33.7713 21.6727 33.7713 22.0032Z" fill="#7C86FF"/>
</svg>
