<svg width="28" height="27" viewBox="0 0 28 27" fill="none" xmlns="http://www.w3.org/2000/svg">
<path d="M18.2 8.12404C18.2 10.3509 16.3196 12.156 14 12.156C11.6804 12.156 9.79999 10.3509 9.79999 8.12404C9.79999 5.89723 11.6804 4.09204 14 4.09204C16.3196 4.09204 18.2 5.89723 18.2 8.12404Z" fill="#7C86FF"/>
<path d="M25.2 10.812C25.2 12.2966 23.9464 13.5 22.4 13.5C20.8536 13.5 19.6 12.2966 19.6 10.812C19.6 9.3275 20.8536 8.12404 22.4 8.12404C23.9464 8.12404 25.2 9.3275 25.2 10.812Z" fill="#7C86FF"/>
<path d="M19.6 20.22C19.6 17.251 17.0928 14.844 14 14.844C10.9072 14.844 8.39999 17.251 8.39999 20.22V24.252H19.6V20.22Z" fill="#7C86FF"/>
<path d="M8.39999 10.812C8.39999 12.2966 7.14639 13.5 5.59999 13.5C4.0536 13.5 2.79999 12.2966 2.79999 10.812C2.79999 9.3275 4.0536 8.12404 5.59999 8.12404C7.14639 8.12404 8.39999 9.3275 8.39999 10.812Z" fill="#7C86FF"/>
<path d="M22.4 24.252V20.22C22.4 18.8033 22.0194 17.4718 21.351 16.3148C21.6863 16.2321 22.0378 16.188 22.4 16.188C24.7196 16.188 26.6 17.9932 26.6 20.22V24.252H22.4Z" fill="#7C86FF"/>
<path d="M6.64896 16.3148C5.98058 17.4718 5.59999 18.8033 5.59999 20.22V24.252H1.39999V20.22C1.39999 17.9932 3.2804 16.188 5.59999 16.188C5.96219 16.188 6.31367 16.2321 6.64896 16.3148Z" fill="#7C86FF"/>
</svg>
