<svg width="45" height="45" viewBox="0 0 45 45" fill="none" xmlns="http://www.w3.org/2000/svg">
<path d="M13.8577 9.19205C16.2264 9.19205 18.1466 7.27187 18.1466 4.9032C18.1466 2.53453 16.2264 0.614349 13.8577 0.614349C11.489 0.614349 9.56885 2.53453 9.56885 4.9032C9.56885 7.27187 11.489 9.19205 13.8577 9.19205Z" fill="#7C86FF"/>
<path d="M23.8599 29.7257C23.739 28.7792 23.0536 28.0021 22.1298 27.7635L17.1478 26.4773L17.259 24.9095C16.4092 24.7475 15.6932 24.1676 15.3558 23.3777L12.3187 16.235L16.9477 22.1269C17.3487 22.6372 17.9787 22.915 18.6298 22.8635L22.6341 22.5449C22.6066 22.6399 22.5911 22.7399 22.5911 22.8438C22.5911 23.436 23.0711 23.9161 23.6633 23.9161C24.6611 23.9161 32.1231 23.9161 33.3362 23.9161C33.8211 23.9161 34.2457 23.5906 34.3717 23.1223L37.0942 12.9999C37.248 12.428 36.9091 11.8397 36.3372 11.6859C35.7653 11.5323 35.1771 11.8709 35.0233 12.4429L32.5142 21.7715C31.4847 21.7715 28.498 21.7715 27.4928 21.7715C27.9387 21.3806 28.2022 20.7931 28.1516 20.1567C28.0665 19.0869 27.1317 18.2878 26.0605 18.3737L19.3602 18.9068L15.3748 13.8341L17.9109 15.7262L17.9924 14.5785C18.1057 12.9825 16.9037 11.5967 15.3075 11.4834L10.39 11.1344C8.7063 11.0149 7.27486 12.3567 7.28768 14.0464L7.39673 28.389C7.40122 28.9836 7.61988 29.5511 8.00383 29.9929H6.01953L3.93029 13.4957C3.82249 12.644 3.04493 12.0406 2.19286 12.1489C1.34118 12.2567 0.738091 13.0346 0.845986 13.8863L3.1073 31.7426C3.20573 32.5194 3.86649 33.1018 4.6495 33.1018H10.2632V39.4678L6.57058 42.4822C6.11183 42.8566 6.04344 43.5321 6.41801 43.9909C6.79249 44.4497 7.46808 44.5179 7.92673 44.1434L10.2631 42.2361V43.3128C10.2631 43.905 10.7432 44.3851 11.3354 44.3851C11.9276 44.3851 12.4077 43.905 12.4077 43.3128V42.2361L14.7441 44.1434C14.9432 44.306 15.1831 44.3852 15.4216 44.3852C15.7324 44.3851 16.0409 44.2506 16.2529 43.9909C16.6274 43.5321 16.5591 42.8566 16.1003 42.4822L12.4077 39.4678V33.1018H17.5266C18.3032 33.1018 18.945 32.5317 19.0606 31.7875L19.4342 31.8839L20.7713 42.3486C20.9346 43.627 22.1034 44.5293 23.3797 44.366C24.6572 44.2029 25.5603 43.0349 25.3971 41.7576L23.8599 29.7257Z" fill="#7C86FF"/>
<path d="M43.2786 25.3087H25.6214C24.763 25.3087 24.0669 26.0046 24.0669 26.8632C24.0669 27.7218 24.7629 28.4178 25.6214 28.4178H41.7241V41.2766H34.4081C33.5497 41.2766 32.8536 41.9725 32.8536 42.8311C32.8536 43.6897 33.5496 44.3856 34.4081 44.3856H43.2786C44.1371 44.3856 44.8332 43.6897 44.8332 42.8311V26.8631C44.8332 26.0047 44.1372 25.3087 43.2786 25.3087Z" fill="#7C86FF"/>
</svg>
