<svg width="40" height="39" viewBox="0 0 40 39" fill="none" xmlns="http://www.w3.org/2000/svg">
<path d="M2.29163 5.75H3.66663V7.125C3.66663 7.88501 4.28229 8.5 5.04163 8.5C5.80096 8.5 6.41663 7.88501 6.41663 7.125V5.75H7.79163C8.55096 5.75 9.16663 5.13501 9.16663 4.375C9.16663 3.61499 8.55096 3 7.79163 3H6.41663V1.625C6.41663 0.86499 5.80096 0.25 5.04163 0.25C4.28229 0.25 3.66663 0.86499 3.66663 1.625V3H2.29163C1.53229 3 0.916626 3.61499 0.916626 4.375C0.916626 5.13501 1.53229 5.75 2.29163 5.75Z" fill="#7C86FF"/>
<path d="M32.5416 5.75H33.9166V7.125C33.9166 7.88501 34.5323 8.5 35.2916 8.5C36.051 8.5 36.6666 7.88501 36.6666 7.125V5.75H38.0416C38.801 5.75 39.4166 5.13501 39.4166 4.375C39.4166 3.61499 38.801 3 38.0416 3H36.6666V1.625C36.6666 0.86499 36.051 0.25 35.2916 0.25C34.5323 0.25 33.9166 0.86499 33.9166 1.625V3H32.5416C31.7823 3 31.1666 3.61499 31.1666 4.375C31.1666 5.13501 31.7823 5.75 32.5416 5.75Z" fill="#7C86FF"/>
<path d="M7.79163 33.25H6.41663V31.875C6.41663 31.115 5.80096 30.5 5.04163 30.5C4.28229 30.5 3.66663 31.115 3.66663 31.875V33.25H2.29163C1.53229 33.25 0.916626 33.865 0.916626 34.625C0.916626 35.385 1.53229 36 2.29163 36H3.66663V37.375C3.66663 38.135 4.28229 38.75 5.04163 38.75C5.80096 38.75 6.41663 38.135 6.41663 37.375V36H7.79163C8.55096 36 9.16663 35.385 9.16663 34.625C9.16663 33.865 8.55096 33.25 7.79163 33.25Z" fill="#7C86FF"/>
<path d="M38.0416 33.25H36.6666V31.875C36.6666 31.115 36.051 30.5 35.2916 30.5C34.5323 30.5 33.9166 31.115 33.9166 31.875V33.25H32.5416C31.7823 33.25 31.1666 33.865 31.1666 34.625C31.1666 35.385 31.7823 36 32.5416 36H33.9166V37.375C33.9166 38.135 34.5323 38.75 35.2916 38.75C36.051 38.75 36.6666 38.135 36.6666 37.375V36H38.0416C38.801 36 39.4166 35.385 39.4166 34.625C39.4166 33.865 38.801 33.25 38.0416 33.25Z" fill="#7C86FF"/>
<path d="M26.2817 5.89502L20.7817 3.14502C20.395 2.95166 19.9384 2.95166 19.5517 3.14502L14.0517 5.89502C14.0039 5.91894 13.9664 5.95536 13.9224 5.98415L20.1667 9.10626L26.411 5.98415C26.3669 5.95536 26.3294 5.91894 26.2817 5.89502Z" fill="#7C86FF"/>
<path d="M13.2916 14C13.2916 14.521 13.5857 14.997 14.0516 15.23L19.4791 18.125V10.3L13.2916 7.20624V14Z" fill="#7C86FF"/>
<path d="M27.0416 14V7.20624L20.8541 10.3V18.125L26.2816 15.23C26.7476 14.997 27.0416 14.521 27.0416 14Z" fill="#7C86FF"/>
<path d="M18.0317 19.645L12.5317 16.895C12.145 16.7017 11.6884 16.7017 11.3017 16.895L5.80169 19.645C5.75394 19.6689 5.71642 19.7054 5.67236 19.7341L11.9167 22.8563L18.161 19.7341C18.1169 19.7054 18.0794 19.6689 18.0317 19.645Z" fill="#7C86FF"/>
<path d="M5.04163 27.75C5.04163 28.271 5.33569 28.747 5.80164 28.98L11.2291 31.875V24.05L5.04163 20.9562V27.75Z" fill="#7C86FF"/>
<path d="M12.6041 31.875L18.0316 28.98C18.4976 28.747 18.7916 28.271 18.7916 27.75V20.9562L12.6041 24.05V31.875Z" fill="#7C86FF"/>
<path d="M34.5317 19.645L29.0317 16.895C28.645 16.7017 28.1884 16.7017 27.8017 16.895L22.3017 19.645C22.2539 19.6689 22.2164 19.7054 22.1724 19.7341L28.4167 22.8563L34.661 19.7341C34.6169 19.7054 34.5794 19.6689 34.5317 19.645Z" fill="#7C86FF"/>
<path d="M21.5416 27.75C21.5416 28.271 21.8357 28.747 22.3016 28.98L27.7291 31.875V24.05L21.5416 20.9562V27.75Z" fill="#7C86FF"/>
<path d="M35.2916 27.75V20.9562L29.1041 24.05V31.875L34.5316 28.98C34.9976 28.747 35.2916 28.271 35.2916 27.75Z" fill="#7C86FF"/>
</svg>
