<svg width="25" height="25" viewBox="0 0 25 25" fill="none" xmlns="http://www.w3.org/2000/svg">
<path d="M16.25 1.75H14.621C14.312 1.0225 13.478 0.5 12.5 0.5C11.522 0.5 10.688 1.0225 10.3775 1.75H8.75C8.336 1.75 8 2.03 8 2.375V4.875C8 5.22 8.336 5.5 8.75 5.5H16.25C16.664 5.5 17 5.22 17 4.875V2.375C17 2.03 16.664 1.75 16.25 1.75Z" fill="#7C86FF"/>
<path d="M19.1667 5.5H17.8333V7.53571C17.8333 8.65807 16.936 9.57143 15.8333 9.57143H9.16667C8.064 9.57143 7.16667 8.65807 7.16667 7.53571V5.5H5.83333C5.09867 5.5 4.5 6.10936 4.5 6.85714V23.1429C4.5 23.9042 5.08533 24.5 5.83333 24.5H19.1667C19.9147 24.5 20.5 23.9042 20.5 23.1429V6.85714C20.5 6.09579 19.9147 5.5 19.1667 5.5ZM12.3053 17.5161L9.63867 20.2304C9.508 20.3621 9.33733 20.4286 9.16667 20.4286C8.996 20.4286 8.82533 20.3621 8.69467 20.2304L7.36133 18.8733C7.10133 18.6086 7.10133 18.1784 7.36133 17.9138C7.62133 17.6491 8.044 17.6491 8.304 17.9138L9.16667 18.7905L11.3613 16.5566C11.6213 16.292 12.044 16.292 12.304 16.5566C12.564 16.8213 12.5653 17.2501 12.3053 17.5161ZM12.3053 12.0876L9.63867 14.8019C9.508 14.9335 9.33733 15 9.16667 15C8.996 15 8.82533 14.9335 8.69467 14.8019L7.36133 13.4447C7.10133 13.1801 7.10133 12.7499 7.36133 12.4852C7.62133 12.2206 8.044 12.2206 8.304 12.4852L9.16667 13.3619L11.3613 11.1281C11.6213 10.8634 12.044 10.8634 12.304 11.1281C12.564 11.3927 12.5653 11.8216 12.3053 12.0876ZM17.1667 19.0714H14.5C14.132 19.0714 13.8333 18.7674 13.8333 18.3929C13.8333 18.0183 14.132 17.7143 14.5 17.7143H17.1667C17.5347 17.7143 17.8333 18.0183 17.8333 18.3929C17.8333 18.7674 17.5347 19.0714 17.1667 19.0714ZM17.1667 13.6429H14.5C14.132 13.6429 13.8333 13.3389 13.8333 12.9643C13.8333 12.5897 14.132 12.2857 14.5 12.2857H17.1667C17.5347 12.2857 17.8333 12.5897 17.8333 12.9643C17.8333 13.3389 17.5347 13.6429 17.1667 13.6429Z" fill="#7C86FF"/>
</svg>
