<svg width="100" height="106" viewBox="0 0 100 106" fill="none" xmlns="http://www.w3.org/2000/svg">
<mask id="path-1-inside-1_29_4632" fill="white">
<path d="M0 7.66669C0 3.8007 3.13401 0.666687 7 0.666687H100V106H7C3.13401 106 0 102.866 0 99V7.66669Z"/>
</mask>
<path d="M0 7.66669C0 3.8007 3.13401 0.666687 7 0.666687H100V106H7C3.13401 106 0 102.866 0 99V7.66669Z" fill="#FFA412" fill-opacity="0.1"/>
<path d="M0 0.666687H100H0ZM100 106H0H100ZM0 106V0.666687V106ZM101 0.666687V106H99V0.666687H101Z" fill="#FFA412" fill-opacity="0.12" mask="url(#path-1-inside-1_29_4632)"/>
<path d="M65.2833 36.9583H39.0833C38.7938 36.9583 38.5161 37.0734 38.3114 37.2781C38.1067 37.4828 37.9917 37.7605 37.9917 38.05V39.1417H60.9167C61.7853 39.1417 62.6183 39.4867 63.2324 40.1009C63.8466 40.7151 64.1917 41.5481 64.1917 42.4167V65.3417H65.2833C65.5729 65.3417 65.8505 65.2267 66.0553 65.0219C66.26 64.8172 66.375 64.5395 66.375 64.25V38.05C66.375 37.7605 66.26 37.4828 66.0553 37.2781C65.8505 37.0734 65.5729 36.9583 65.2833 36.9583Z" fill="#FFA412"/>
<path d="M60.9167 41.325H34.7167C34.4271 41.325 34.1495 41.44 33.9447 41.6447C33.74 41.8494 33.625 42.1271 33.625 42.4166V68.6166C33.625 68.9061 33.74 69.1838 33.9447 69.3885C34.1495 69.5933 34.4271 69.7083 34.7167 69.7083H60.9167C61.2062 69.7083 61.4839 69.5933 61.6886 69.3885C61.8933 69.1838 62.0083 68.9061 62.0083 68.6166V42.4166C62.0083 42.1271 61.8933 41.8494 61.6886 41.6447C61.4839 41.44 61.2062 41.325 60.9167 41.325ZM55.7345 51.5255L46.2065 61.0514C46.0017 61.256 45.7241 61.371 45.4346 61.371C45.1452 61.371 44.8676 61.256 44.6628 61.0514L39.8988 56.2884C39.7 56.0825 39.5899 55.8068 39.5924 55.5205C39.5949 55.2343 39.7097 54.9605 39.9121 54.7581C40.1145 54.5557 40.3883 54.4409 40.6745 54.4384C40.9608 54.4359 41.2365 54.546 41.4424 54.7448L45.4346 58.7359L54.1909 49.9819C54.3968 49.783 54.6726 49.673 54.9588 49.6755C55.245 49.678 55.5188 49.7928 55.7212 49.9952C55.9236 50.1976 56.0384 50.4714 56.0409 50.7576C56.0434 51.0438 55.9334 51.3196 55.7345 51.5255Z" fill="#FFA412"/>
</svg>
