<svg width="100" height="106" viewBox="0 0 100 106" fill="none" xmlns="http://www.w3.org/2000/svg">
<mask id="path-1-inside-1_29_4607" fill="white">
<path d="M0 7.33335C0 3.46735 3.13401 0.333344 7 0.333344H100V105.667H7C3.13401 105.667 0 102.533 0 98.6667V7.33335Z"/>
</mask>
<path d="M0 7.33335C0 3.46735 3.13401 0.333344 7 0.333344H100V105.667H7C3.13401 105.667 0 102.533 0 98.6667V7.33335Z" fill="#FFF0F0"/>
<path d="M0 0.333344H100H0ZM100 105.667H0H100ZM0 105.667V0.333344V105.667ZM101 0.333344V105.667H99V0.333344H101Z" fill="#FA6767" fill-opacity="0.12" mask="url(#path-1-inside-1_29_4607)"/>
<path d="M55.2083 38.4166H52.9458C52.5167 37.2041 51.3583 36.3332 50 36.3332C48.6417 36.3332 47.4833 37.2041 47.0521 38.4166H44.7917C44.2167 38.4166 43.75 38.8832 43.75 39.4582V43.6249C43.75 44.1999 44.2167 44.6666 44.7917 44.6666H55.2083C55.7833 44.6666 56.25 44.1999 56.25 43.6249V39.4582C56.25 38.8832 55.7833 38.4166 55.2083 38.4166Z" fill="#FA6767"/>
<path d="M60.4167 40.5002H58.3333V43.6252C58.3333 45.3481 56.9312 46.7502 55.2083 46.7502H44.7917C43.0687 46.7502 41.6667 45.3481 41.6667 43.6252V40.5002H39.5833C38.4354 40.5002 37.5 41.4356 37.5 42.5835V67.5835C37.5 68.7522 38.4146 69.6668 39.5833 69.6668H60.4167C61.5854 69.6668 62.5 68.7522 62.5 67.5835V42.5835C62.5 41.4147 61.5854 40.5002 60.4167 40.5002ZM49.6958 58.946L45.5292 63.1127C45.325 63.3147 45.0583 63.4168 44.7917 63.4168C44.525 63.4168 44.2583 63.3147 44.0542 63.1127L41.9708 61.0293C41.5646 60.6231 41.5646 59.9627 41.9708 59.5564C42.3771 59.1502 43.0375 59.1502 43.4437 59.5564L44.7917 60.9022L48.2208 57.4731C48.6271 57.0668 49.2875 57.0668 49.6937 57.4731C50.1 57.8793 50.1021 58.5377 49.6958 58.946ZM49.6958 50.6127L45.5292 54.7793C45.325 54.9814 45.0583 55.0835 44.7917 55.0835C44.525 55.0835 44.2583 54.9814 44.0542 54.7793L41.9708 52.696C41.5646 52.2897 41.5646 51.6293 41.9708 51.2231C42.3771 50.8168 43.0375 50.8168 43.4437 51.2231L44.7917 52.5689L48.2208 49.1397C48.6271 48.7335 49.2875 48.7335 49.6937 49.1397C50.1 49.546 50.1021 50.2043 49.6958 50.6127ZM57.2917 61.3335H53.125C52.55 61.3335 52.0833 60.8668 52.0833 60.2918C52.0833 59.7168 52.55 59.2502 53.125 59.2502H57.2917C57.8667 59.2502 58.3333 59.7168 58.3333 60.2918C58.3333 60.8668 57.8667 61.3335 57.2917 61.3335ZM57.2917 53.0002H53.125C52.55 53.0002 52.0833 52.5335 52.0833 51.9585C52.0833 51.3835 52.55 50.9168 53.125 50.9168H57.2917C57.8667 50.9168 58.3333 51.3835 58.3333 51.9585C58.3333 52.5335 57.8667 53.0002 57.2917 53.0002Z" fill="#FA6767"/>
</svg>
