<svg width="100" height="106" viewBox="0 0 100 106" fill="none" xmlns="http://www.w3.org/2000/svg">
<mask id="path-1-inside-1_29_4525" fill="white">
<path d="M0 7C0 3.13401 3.13401 0 7 0H100V105.333H7C3.13401 105.333 0 102.199 0 98.3333V7Z"/>
</mask>
<path d="M0 7C0 3.13401 3.13401 0 7 0H100V105.333H7C3.13401 105.333 0 102.199 0 98.3333V7Z" fill="#7C86FF" fill-opacity="0.08"/>
<path d="M0 0H100H0ZM100 105.333H0H100ZM0 105.333V0V105.333ZM101 0V105.333H99V0H101Z" fill="#7C86FF" fill-opacity="0.12" mask="url(#path-1-inside-1_29_4525)"/>
<path d="M51.3158 53.9269C54.8276 53.9269 57.6853 51.1011 57.6853 47.628C57.6853 44.1551 54.8278 41.3291 51.3158 41.3291C47.804 41.3291 44.9463 44.1548 44.9463 47.628C44.9463 51.1009 47.8038 53.9269 51.3158 53.9269ZM51.3158 46.3682C52.0192 46.3682 52.5897 46.9321 52.5897 47.628C52.5897 48.3236 52.0193 48.8878 51.3158 48.8878C50.6124 48.8878 50.0419 48.3237 50.0419 47.628C50.0419 46.9323 50.6121 46.3682 51.3158 46.3682Z" fill="#7C86FF"/>
<path d="M64.0555 31.1668C60.5438 31.1668 57.6861 33.9926 57.6861 37.4657C57.6861 40.9386 60.5435 43.7646 64.0555 43.7646C67.5673 43.7646 70.425 40.9389 70.425 37.4657C70.425 33.9928 67.5676 31.1668 64.0555 31.1668ZM64.0555 38.7255C63.3521 38.7255 62.7817 38.1615 62.7817 37.4657C62.7817 36.7701 63.3518 36.2059 64.0555 36.2059C64.759 36.2059 65.3294 36.7698 65.3294 37.4657C65.3294 38.1614 64.7591 38.7255 64.0555 38.7255Z" fill="#7C86FF"/>
<path d="M42.3988 41.2451C45.213 41.2451 47.4944 38.989 47.4944 36.2059C47.4944 33.4229 45.213 31.1668 42.3988 31.1668C39.5846 31.1668 37.3032 33.4229 37.3032 36.2059C37.3032 38.989 39.5846 41.2451 42.3988 41.2451Z" fill="#7C86FF"/>
<path d="M37.5917 73.7974C38.0892 74.2895 38.8954 74.2896 39.393 73.7974L44.1154 69.1274H54.1866C56.4942 69.1274 58.7552 68.2628 60.4797 66.5574L69.4222 57.7139C69.9257 57.2157 69.9169 56.41 69.4115 55.9217C68.194 54.7459 66.2464 54.7574 65.0429 55.9474L58.6708 62.2489C57.4762 63.4304 55.8722 64.0883 54.1866 64.0883H43.5879C42.8746 64.0883 42.314 63.5341 42.314 62.8285C42.314 62.1229 42.8744 61.5687 43.5879 61.5687H52.5052C53.9121 61.5687 55.053 60.4408 55.053 59.0492C55.053 57.6576 53.9124 56.5296 52.5052 56.5296H40.6071C40.6066 56.5296 40.6063 56.5297 40.6059 56.5298C40.6054 56.5298 40.6051 56.5299 40.6047 56.5299C40.6044 56.5299 40.6043 56.5298 40.6041 56.5298C40.6039 56.5297 40.6037 56.5296 40.6034 56.5296C38.9022 56.5296 37.3021 57.1849 36.0987 58.375L29.9482 64.4574C29.4506 64.9495 29.4505 65.7467 29.9482 66.2388L37.5917 73.7974Z" fill="#7C86FF"/>
</svg>
